<?xml version="1.0" encoding="utf-8"?>
<!-- Generator: Adobe Illustrator 28.3.0, SVG Export Plug-In . SVG Version: 6.00 Build 0)  -->
<svg version="1.1" id="Layer_1" xmlns="http://www.w3.org/2000/svg" xmlns:xlink="http://www.w3.org/1999/xlink" x="0px" y="0px"
	 viewBox="0 0 2227 2227" style="enable-background:new 0 0 2227 2227;" xml:space="preserve">
<style type="text/css">
	.st0{fill:#FFFFFF;}
</style>
<g>
	<g>
		<rect x="111.8" y="111.8" class="st0" width="2003.4" height="2003.4"/>
		<path d="M976,134.3h202c18.6,0,33.7,15.1,33.7,33.7l0,0c0,18.6-15.1,33.7-33.7,33.7H976c-18.6,0-33.7-15.1-33.7-33.7l0,0
			C942.3,149.3,957.4,134.3,976,134.3z"/>
		<path d="M1380.1,134.3h134.7c18.6,0,33.7,15.1,33.7,33.7l0,0c0,18.6-15.1,33.7-33.7,33.7h-134.7c-18.6,0-33.7-15.1-33.7-33.7l0,0
			C1346.4,149.3,1361.5,134.3,1380.1,134.3z"/>
		<path d="M976,201.6h336.7c18.6,0,33.7,15.1,33.7,33.7l0,0c0,18.6-15.1,33.7-33.7,33.7H976c-18.6,0-33.7-15.1-33.7-33.7l0,0
			C942.3,216.7,957.4,201.6,976,201.6z"/>
		<path d="M1447.4,201.6L1447.4,201.6c18.6,0,33.7,15.1,33.7,33.7l0,0c0,18.6-15.1,33.7-33.7,33.7l0,0c-18.6,0-33.7-15.1-33.7-33.7
			l0,0C1413.7,216.7,1428.8,201.6,1447.4,201.6z"/>
		<path d="M706.7,268.9L706.7,268.9c18.6,0,33.7,15.1,33.7,33.7l0,0c0,18.6-15.1,33.7-33.7,33.7l0,0c-18.6,0-33.7-15.1-33.7-33.7
			l0,0C673,284,688.1,268.9,706.7,268.9z"/>
		<path d="M841.3,268.9L841.3,268.9c18.6,0,33.7,15.1,33.7,33.7l0,0c0,18.6-15.1,33.7-33.7,33.7l0,0c-18.6,0-33.7-15.1-33.7-33.7
			l0,0C807.7,284,822.7,268.9,841.3,268.9z"/>
		<path d="M976,268.9h67.3c18.6,0,33.7,15.1,33.7,33.7l0,0c0,18.6-15.1,33.7-33.7,33.7H976c-18.6,0-33.7-15.1-33.7-33.7l0,0
			C942.3,284,957.4,268.9,976,268.9z"/>
		<path d="M1178,268.9L1178,268.9c18.6,0,33.7,15.1,33.7,33.7l0,0c0,18.6-15.1,33.7-33.7,33.7l0,0c-18.6,0-33.7-15.1-33.7-33.7l0,0
			C1144.4,284,1159.4,268.9,1178,268.9z"/>
		<path d="M1380.1,268.9h67.3c18.6,0,33.7,15.1,33.7,33.7l0,0c0,18.6-15.1,33.7-33.7,33.7h-67.3c-18.6,0-33.7-15.1-33.7-33.7l0,0
			C1346.4,284,1361.5,268.9,1380.1,268.9z"/>
		<path d="M706.7,336.3H774c18.6,0,33.7,15.1,33.7,33.7l0,0c0,18.6-15.1,33.7-33.7,33.7h-67.3c-18.6,0-33.7-15.1-33.7-33.7l0,0
			C673,351.4,688.1,336.3,706.7,336.3z"/>
		<path d="M1110.7,336.3h67.3c18.6,0,33.7,15.1,33.7,33.7l0,0c0,18.6-15.1,33.7-33.7,33.7h-67.3c-18.6,0-33.7-15.1-33.7-33.7l0,0
			C1077,351.4,1092.1,336.3,1110.7,336.3z"/>
		<path d="M1312.7,336.3h67.3c18.6,0,33.7,15.1,33.7,33.7l0,0c0,18.6-15.1,33.7-33.7,33.7h-67.3c-18.6,0-33.7-15.1-33.7-33.7l0,0
			C1279,351.4,1294.1,336.3,1312.7,336.3z"/>
		<path d="M706.7,403.6H774c18.6,0,33.7,15.1,33.7,33.7l0,0c0,18.6-15.1,33.7-33.7,33.7h-67.3c-18.6,0-33.7-15.1-33.7-33.7l0,0
			C673,418.7,688.1,403.6,706.7,403.6z"/>
		<path d="M976,403.6L976,403.6c18.6,0,33.7,15.1,33.7,33.7l0,0c0,18.6-15.1,33.7-33.7,33.7l0,0c-18.6,0-33.7-15.1-33.7-33.7l0,0
			C942.3,418.7,957.4,403.6,976,403.6z"/>
		<path d="M1178,403.6h67.3c18.6,0,33.7,15.1,33.7,33.7l0,0c0,18.6-15.1,33.7-33.7,33.7H1178c-18.6,0-33.7-15.1-33.7-33.7l0,0
			C1144.4,418.7,1159.4,403.6,1178,403.6z"/>
		<path d="M1447.4,403.6L1447.4,403.6c18.6,0,33.7,15.1,33.7,33.7l0,0c0,18.6-15.1,33.7-33.7,33.7l0,0c-18.6,0-33.7-15.1-33.7-33.7
			l0,0C1413.7,418.7,1428.8,403.6,1447.4,403.6z"/>
		<path d="M706.7,471L706.7,471c18.6,0,33.7,15.1,33.7,33.7l0,0c0,18.6-15.1,33.7-33.7,33.7l0,0c-18.6,0-33.7-15.1-33.7-33.7l0,0
			C673,486,688.1,471,706.7,471z"/>
		<path d="M841.3,471L841.3,471c18.6,0,33.7,15.1,33.7,33.7l0,0c0,18.6-15.1,33.7-33.7,33.7l0,0c-18.6,0-33.7-15.1-33.7-33.7l0,0
			C807.7,486,822.7,471,841.3,471z"/>
		<path d="M1312.7,471L1312.7,471c18.6,0,33.7,15.1,33.7,33.7l0,0c0,18.6-15.1,33.7-33.7,33.7l0,0c-18.6,0-33.7-15.1-33.7-33.7l0,0
			C1279,486,1294.1,471,1312.7,471z"/>
		<path d="M1514.7,471L1514.7,471c18.6,0,33.7,15.1,33.7,33.7l0,0c0,18.6-15.1,33.7-33.7,33.7l0,0c-18.6,0-33.7-15.1-33.7-33.7l0,0
			C1481.1,486,1496.1,471,1514.7,471z"/>
		<path d="M706.7,538.3L706.7,538.3c18.6,0,33.7,15.1,33.7,33.7l0,0c0,18.6-15.1,33.7-33.7,33.7l0,0c-18.6,0-33.7-15.1-33.7-33.7
			l0,0C673,553.4,688.1,538.3,706.7,538.3z"/>
		<path d="M841.3,538.3L841.3,538.3c18.6,0,33.7,15.1,33.7,33.7l0,0c0,18.6-15.1,33.7-33.7,33.7l0,0c-18.6,0-33.7-15.1-33.7-33.7
			l0,0C807.7,553.4,822.7,538.3,841.3,538.3z"/>
		<path d="M976,538.3L976,538.3c18.6,0,33.7,15.1,33.7,33.7l0,0c0,18.6-15.1,33.7-33.7,33.7l0,0c-18.6,0-33.7-15.1-33.7-33.7l0,0
			C942.3,553.4,957.4,538.3,976,538.3z"/>
		<path d="M1110.7,538.3L1110.7,538.3c18.6,0,33.7,15.1,33.7,33.7l0,0c0,18.6-15.1,33.7-33.7,33.7l0,0c-18.6,0-33.7-15.1-33.7-33.7
			l0,0C1077,553.4,1092.1,538.3,1110.7,538.3z"/>
		<path d="M1245.4,538.3L1245.4,538.3c18.6,0,33.7,15.1,33.7,33.7l0,0c0,18.6-15.1,33.7-33.7,33.7l0,0c-18.6,0-33.7-15.1-33.7-33.7
			l0,0C1211.7,553.4,1226.8,538.3,1245.4,538.3z"/>
		<path d="M1380.1,538.3L1380.1,538.3c18.6,0,33.7,15.1,33.7,33.7l0,0c0,18.6-15.1,33.7-33.7,33.7l0,0c-18.6,0-33.7-15.1-33.7-33.7
			l0,0C1346.4,553.4,1361.5,538.3,1380.1,538.3z"/>
		<path d="M1514.7,538.3L1514.7,538.3c18.6,0,33.7,15.1,33.7,33.7l0,0c0,18.6-15.1,33.7-33.7,33.7l0,0c-18.6,0-33.7-15.1-33.7-33.7
			l0,0C1481.1,553.4,1496.1,538.3,1514.7,538.3z"/>
		<path d="M706.7,605.6L706.7,605.6c18.6,0,33.7,15.1,33.7,33.7l0,0c0,18.6-15.1,33.7-33.7,33.7l0,0c-18.6,0-33.7-15.1-33.7-33.7
			l0,0C673,620.7,688.1,605.6,706.7,605.6z"/>
		<path d="M841.3,605.6L841.3,605.6c18.6,0,33.7,15.1,33.7,33.7l0,0c0,18.6-15.1,33.7-33.7,33.7l0,0c-18.6,0-33.7-15.1-33.7-33.7
			l0,0C807.7,620.7,822.7,605.6,841.3,605.6z"/>
		<path d="M976,605.6L976,605.6c18.6,0,33.7,15.1,33.7,33.7l0,0c0,18.6-15.1,33.7-33.7,33.7l0,0c-18.6,0-33.7-15.1-33.7-33.7l0,0
			C942.3,620.7,957.4,605.6,976,605.6z"/>
		<path d="M1110.7,605.6L1110.7,605.6c18.6,0,33.7,15.1,33.7,33.7l0,0c0,18.6-15.1,33.7-33.7,33.7l0,0c-18.6,0-33.7-15.1-33.7-33.7
			l0,0C1077,620.7,1092.1,605.6,1110.7,605.6z"/>
		<path d="M1245.4,605.6h269.4c18.6,0,33.7,15.1,33.7,33.7l0,0c0,18.6-15.1,33.7-33.7,33.7h-269.4c-18.6,0-33.7-15.1-33.7-33.7l0,0
			C1211.7,620.7,1226.8,605.6,1245.4,605.6z"/>
		<path d="M167.9,673L167.9,673c18.6,0,33.7,15.1,33.7,33.7l0,0c0,18.6-15.1,33.7-33.7,33.7l0,0c-18.6,0-33.7-15.1-33.7-33.7l0,0
			C134.3,688.1,149.3,673,167.9,673z"/>
		<path d="M302.6,673H572c18.6,0,33.7,15.1,33.7,33.7l0,0c0,18.6-15.1,33.7-33.7,33.7H302.6c-18.6,0-33.7-15.1-33.7-33.7l0,0
			C268.9,688.1,284,673,302.6,673z"/>
		<path d="M976,673L976,673c18.6,0,33.7,15.1,33.7,33.7l0,0c0,18.6-15.1,33.7-33.7,33.7l0,0c-18.6,0-33.7-15.1-33.7-33.7l0,0
			C942.3,688.1,957.4,673,976,673z"/>
		<path d="M1245.4,673h67.3c18.6,0,33.7,15.1,33.7,33.7l0,0c0,18.6-15.1,33.7-33.7,33.7h-67.3c-18.6,0-33.7-15.1-33.7-33.7l0,0
			C1211.7,688.1,1226.8,673,1245.4,673z"/>
		<path d="M1514.7,673L1514.7,673c18.6,0,33.7,15.1,33.7,33.7l0,0c0,18.6-15.1,33.7-33.7,33.7l0,0c-18.6,0-33.7-15.1-33.7-33.7l0,0
			C1481.1,688.1,1496.1,673,1514.7,673z"/>
		<path d="M1649.4,673h269.4c18.6,0,33.7,15.1,33.7,33.7l0,0c0,18.6-15.1,33.7-33.7,33.7h-269.4c-18.6,0-33.7-15.1-33.7-33.7l0,0
			C1615.7,688.1,1630.8,673,1649.4,673z"/>
		<path d="M235.3,740.3h202c18.6,0,33.7,15.1,33.7,33.7l0,0c0,18.6-15.1,33.7-33.7,33.7h-202c-18.6,0-33.7-15.1-33.7-33.7l0,0
			C201.6,755.4,216.7,740.3,235.3,740.3z"/>
		<path d="M774,740.3h404c18.6,0,33.7,15.1,33.7,33.7l0,0c0,18.6-15.1,33.7-33.7,33.7H774c-18.6,0-33.7-15.1-33.7-33.7l0,0
			C740.3,755.4,755.4,740.3,774,740.3z"/>
		<path d="M1514.7,740.3L1514.7,740.3c18.6,0,33.7,15.1,33.7,33.7l0,0c0,18.6-15.1,33.7-33.7,33.7l0,0c-18.6,0-33.7-15.1-33.7-33.7
			l0,0C1481.1,755.4,1496.1,740.3,1514.7,740.3z"/>
		<path d="M1649.4,740.3L1649.4,740.3c18.6,0,33.7,15.1,33.7,33.7l0,0c0,18.6-15.1,33.7-33.7,33.7l0,0c-18.6,0-33.7-15.1-33.7-33.7
			l0,0C1615.7,755.4,1630.8,740.3,1649.4,740.3z"/>
		<path d="M1784.1,740.3h67.3c18.6,0,33.7,15.1,33.7,33.7l0,0c0,18.6-15.1,33.7-33.7,33.7h-67.3c-18.6,0-33.7-15.1-33.7-33.7l0,0
			C1750.4,755.4,1765.5,740.3,1784.1,740.3z"/>
		<path d="M1986.1,740.3L1986.1,740.3c18.6,0,33.7,15.1,33.7,33.7l0,0c0,18.6-15.1,33.7-33.7,33.7l0,0c-18.6,0-33.7-15.1-33.7-33.7
			l0,0C1952.5,755.4,1967.5,740.3,1986.1,740.3z"/>
		<path d="M167.9,807.7h67.3c18.6,0,33.7,15.1,33.7,33.7l0,0c0,18.6-15.1,33.7-33.7,33.7h-67.3c-18.6,0-33.7-15.1-33.7-33.7l0,0
			C134.3,822.7,149.3,807.7,167.9,807.7z"/>
		<path d="M369.9,807.7L369.9,807.7c18.6,0,33.7,15.1,33.7,33.7l0,0c0,18.6-15.1,33.7-33.7,33.7l0,0c-18.6,0-33.7-15.1-33.7-33.7
			l0,0C336.3,822.7,351.4,807.7,369.9,807.7z"/>
		<path d="M504.6,807.7H572c18.6,0,33.7,15.1,33.7,33.7l0,0c0,18.6-15.1,33.7-33.7,33.7h-67.3c-18.6,0-33.7-15.1-33.7-33.7l0,0
			C471,822.7,486,807.7,504.6,807.7z"/>
		<path d="M908.7,807.7L908.7,807.7c18.6,0,33.7,15.1,33.7,33.7l0,0c0,18.6-15.1,33.7-33.7,33.7l0,0c-18.6,0-33.7-15.1-33.7-33.7
			l0,0C875,822.7,890.1,807.7,908.7,807.7z"/>
		<path d="M1043.4,807.7h269.4c18.6,0,33.7,15.1,33.7,33.7l0,0c0,18.6-15.1,33.7-33.7,33.7h-269.4c-18.6,0-33.7-15.1-33.7-33.7l0,0
			C1009.7,822.7,1024.8,807.7,1043.4,807.7z"/>
		<path d="M1716.8,807.7L1716.8,807.7c18.6,0,33.7,15.1,33.7,33.7l0,0c0,18.6-15.1,33.7-33.7,33.7l0,0c-18.6,0-33.7-15.1-33.7-33.7
			l0,0C1683.1,822.7,1698.2,807.7,1716.8,807.7z"/>
		<path d="M1851.4,807.7h67.3c18.6,0,33.7,15.1,33.7,33.7l0,0c0,18.6-15.1,33.7-33.7,33.7h-67.3c-18.6,0-33.7-15.1-33.7-33.7l0,0
			C1817.8,822.7,1832.8,807.7,1851.4,807.7z"/>
		<path d="M167.9,875h67.3c18.6,0,33.7,15.1,33.7,33.7l0,0c0,18.6-15.1,33.7-33.7,33.7h-67.3c-18.6,0-33.7-15.1-33.7-33.7l0,0
			C134.3,890.1,149.3,875,167.9,875z"/>
		<path d="M437.3,875h67.3c18.6,0,33.7,15.1,33.7,33.7l0,0c0,18.6-15.1,33.7-33.7,33.7h-67.3c-18.6,0-33.7-15.1-33.7-33.7l0,0
			C403.6,890.1,418.7,875,437.3,875z"/>
		<path d="M774,875h269.4c18.6,0,33.7,15.1,33.7,33.7l0,0c0,18.6-15.1,33.7-33.7,33.7H774c-18.6,0-33.7-15.1-33.7-33.7l0,0
			C740.3,890.1,755.4,875,774,875z"/>
		<path d="M1178,875L1178,875c18.6,0,33.7,15.1,33.7,33.7l0,0c0,18.6-15.1,33.7-33.7,33.7l0,0c-18.6,0-33.7-15.1-33.7-33.7l0,0
			C1144.4,890.1,1159.4,875,1178,875z"/>
		<path d="M1312.7,875h538.7c18.6,0,33.7,15.1,33.7,33.7l0,0c0,18.6-15.1,33.7-33.7,33.7h-538.7c-18.6,0-33.7-15.1-33.7-33.7l0,0
			C1279,890.1,1294.1,875,1312.7,875z"/>
		<path d="M2053.5,875L2053.5,875c18.6,0,33.7,15.1,33.7,33.7l0,0c0,18.6-15.1,33.7-33.7,33.7l0,0c-18.6,0-33.7-15.1-33.7-33.7l0,0
			C2019.8,890.1,2034.9,875,2053.5,875z"/>
		<path d="M167.9,942.3h202c18.6,0,33.7,15.1,33.7,33.7l0,0c0,18.6-15.1,33.7-33.7,33.7h-202c-18.6,0-33.7-15.1-33.7-33.7l0,0
			C134.3,957.4,149.3,942.3,167.9,942.3z"/>
		<path d="M572,942.3h134.7c18.6,0,33.7,15.1,33.7,33.7l0,0c0,18.6-15.1,33.7-33.7,33.7H572c-18.6,0-33.7-15.1-33.7-33.7l0,0
			C538.3,957.4,553.4,942.3,572,942.3z"/>
		<path d="M841.3,942.3L841.3,942.3c18.6,0,33.7,15.1,33.7,33.7l0,0c0,18.6-15.1,33.7-33.7,33.7l0,0c-18.6,0-33.7-15.1-33.7-33.7
			l0,0C807.7,957.4,822.7,942.3,841.3,942.3z"/>
		<path d="M976,942.3L976,942.3c18.6,0,33.7,15.1,33.7,33.7l0,0c0,18.6-15.1,33.7-33.7,33.7l0,0c-18.6,0-33.7-15.1-33.7-33.7l0,0
			C942.3,957.4,957.4,942.3,976,942.3z"/>
		<path d="M1110.7,942.3h67.3c18.6,0,33.7,15.1,33.7,33.7l0,0c0,18.6-15.1,33.7-33.7,33.7h-67.3c-18.6,0-33.7-15.1-33.7-33.7l0,0
			C1077,957.4,1092.1,942.3,1110.7,942.3z"/>
		<path d="M1582.1,942.3h67.3c18.6,0,33.7,15.1,33.7,33.7l0,0c0,18.6-15.1,33.7-33.7,33.7h-67.3c-18.6,0-33.7-15.1-33.7-33.7l0,0
			C1548.4,957.4,1563.5,942.3,1582.1,942.3z"/>
		<path d="M235.3,1009.7L235.3,1009.7c18.6,0,33.7,15.1,33.7,33.7l0,0c0,18.6-15.1,33.7-33.7,33.7l0,0c-18.6,0-33.7-15.1-33.7-33.7
			l0,0C201.6,1024.8,216.7,1009.7,235.3,1009.7z"/>
		<path d="M369.9,1009.7L369.9,1009.7c18.6,0,33.7,15.1,33.7,33.7l0,0c0,18.6-15.1,33.7-33.7,33.7l0,0c-18.6,0-33.7-15.1-33.7-33.7
			l0,0C336.3,1024.8,351.4,1009.7,369.9,1009.7z"/>
		<path d="M639.3,1009.7H774c18.6,0,33.7,15.1,33.7,33.7l0,0c0,18.6-15.1,33.7-33.7,33.7H639.3c-18.6,0-33.7-15.1-33.7-33.7l0,0
			C605.6,1024.8,620.7,1009.7,639.3,1009.7z"/>
		<path d="M908.7,1009.7L908.7,1009.7c18.6,0,33.7,15.1,33.7,33.7l0,0c0,18.6-15.1,33.7-33.7,33.7l0,0c-18.6,0-33.7-15.1-33.7-33.7
			l0,0C875,1024.8,890.1,1009.7,908.7,1009.7z"/>
		<path d="M1178,1009.7h67.3c18.6,0,33.7,15.1,33.7,33.7l0,0c0,18.6-15.1,33.7-33.7,33.7H1178c-18.6,0-33.7-15.1-33.7-33.7l0,0
			C1144.4,1024.8,1159.4,1009.7,1178,1009.7z"/>
		<path d="M1447.4,1009.7h67.3c18.6,0,33.7,15.1,33.7,33.7l0,0c0,18.6-15.1,33.7-33.7,33.7h-67.3c-18.6,0-33.7-15.1-33.7-33.7l0,0
			C1413.7,1024.8,1428.8,1009.7,1447.4,1009.7z"/>
		<path d="M1716.8,1009.7L1716.8,1009.7c18.6,0,33.7,15.1,33.7,33.7l0,0c0,18.6-15.1,33.7-33.7,33.7l0,0
			c-18.6,0-33.7-15.1-33.7-33.7l0,0C1683.1,1024.8,1698.2,1009.7,1716.8,1009.7z"/>
		<path d="M1851.4,1009.7L1851.4,1009.7c18.6,0,33.7,15.1,33.7,33.7l0,0c0,18.6-15.1,33.7-33.7,33.7l0,0
			c-18.6,0-33.7-15.1-33.7-33.7l0,0C1817.8,1024.8,1832.8,1009.7,1851.4,1009.7z"/>
		<path d="M1986.1,1009.7L1986.1,1009.7c18.6,0,33.7,15.1,33.7,33.7l0,0c0,18.6-15.1,33.7-33.7,33.7l0,0
			c-18.6,0-33.7-15.1-33.7-33.7l0,0C1952.5,1024.8,1967.5,1009.7,1986.1,1009.7z"/>
		<path d="M302.6,1077L302.6,1077c18.6,0,33.7,15.1,33.7,33.7l0,0c0,18.6-15.1,33.7-33.7,33.7l0,0c-18.6,0-33.7-15.1-33.7-33.7l0,0
			C268.9,1092.1,284,1077,302.6,1077z"/>
		<path d="M504.6,1077H572c18.6,0,33.7,15.1,33.7,33.7l0,0c0,18.6-15.1,33.7-33.7,33.7h-67.3c-18.6,0-33.7-15.1-33.7-33.7l0,0
			C471,1092.1,486,1077,504.6,1077z"/>
		<path d="M706.7,1077h134.7c18.6,0,33.7,15.1,33.7,33.7l0,0c0,18.6-15.1,33.7-33.7,33.7H706.7c-18.6,0-33.7-15.1-33.7-33.7l0,0
			C673,1092.1,688.1,1077,706.7,1077z"/>
		<path d="M976,1077L976,1077c18.6,0,33.7,15.1,33.7,33.7l0,0c0,18.6-15.1,33.7-33.7,33.7l0,0c-18.6,0-33.7-15.1-33.7-33.7l0,0
			C942.3,1092.1,957.4,1077,976,1077z"/>
		<path d="M1312.7,1077h67.3c18.6,0,33.7,15.1,33.7,33.7l0,0c0,18.6-15.1,33.7-33.7,33.7h-67.3c-18.6,0-33.7-15.1-33.7-33.7l0,0
			C1279,1092.1,1294.1,1077,1312.7,1077z"/>
		<path d="M1514.7,1077L1514.7,1077c18.6,0,33.7,15.1,33.7,33.7l0,0c0,18.6-15.1,33.7-33.7,33.7l0,0c-18.6,0-33.7-15.1-33.7-33.7
			l0,0C1481.1,1092.1,1496.1,1077,1514.7,1077z"/>
		<path d="M1851.4,1077h202c18.6,0,33.7,15.1,33.7,33.7l0,0c0,18.6-15.1,33.7-33.7,33.7h-202c-18.6,0-33.7-15.1-33.7-33.7l0,0
			C1817.8,1092.1,1832.8,1077,1851.4,1077z"/>
		<path d="M235.3,1144.4h67.3c18.6,0,33.7,15.1,33.7,33.7l0,0c0,18.6-15.1,33.7-33.7,33.7h-67.3c-18.6,0-33.7-15.1-33.7-33.7l0,0
			C201.6,1159.4,216.7,1144.4,235.3,1144.4z"/>
		<path d="M437.3,1144.4L437.3,1144.4c18.6,0,33.7,15.1,33.7,33.7l0,0c0,18.6-15.1,33.7-33.7,33.7l0,0c-18.6,0-33.7-15.1-33.7-33.7
			l0,0C403.6,1159.4,418.7,1144.4,437.3,1144.4z"/>
		<path d="M706.7,1144.4h134.7c18.6,0,33.7,15.1,33.7,33.7l0,0c0,18.6-15.1,33.7-33.7,33.7H706.7c-18.6,0-33.7-15.1-33.7-33.7l0,0
			C673,1159.4,688.1,1144.4,706.7,1144.4z"/>
		<path d="M1110.7,1144.4L1110.7,1144.4c18.6,0,33.7,15.1,33.7,33.7l0,0c0,18.6-15.1,33.7-33.7,33.7l0,0
			c-18.6,0-33.7-15.1-33.7-33.7l0,0C1077,1159.4,1092.1,1144.4,1110.7,1144.4z"/>
		<path d="M1245.4,1144.4h269.4c18.6,0,33.7,15.1,33.7,33.7l0,0c0,18.6-15.1,33.7-33.7,33.7h-269.4c-18.6,0-33.7-15.1-33.7-33.7l0,0
			C1211.7,1159.4,1226.8,1144.4,1245.4,1144.4z"/>
		<path d="M1649.4,1144.4L1649.4,1144.4c18.6,0,33.7,15.1,33.7,33.7l0,0c0,18.6-15.1,33.7-33.7,33.7l0,0
			c-18.6,0-33.7-15.1-33.7-33.7l0,0C1615.7,1159.4,1630.8,1144.4,1649.4,1144.4z"/>
		<path d="M1784.1,1144.4L1784.1,1144.4c18.6,0,33.7,15.1,33.7,33.7l0,0c0,18.6-15.1,33.7-33.7,33.7l0,0
			c-18.6,0-33.7-15.1-33.7-33.7l0,0C1750.4,1159.4,1765.5,1144.4,1784.1,1144.4z"/>
		<path d="M1986.1,1144.4h67.3c18.6,0,33.7,15.1,33.7,33.7l0,0c0,18.6-15.1,33.7-33.7,33.7h-67.3c-18.6,0-33.7-15.1-33.7-33.7l0,0
			C1952.5,1159.4,1967.5,1144.4,1986.1,1144.4z"/>
		<path d="M369.9,1211.7L369.9,1211.7c18.6,0,33.7,15.1,33.7,33.7l0,0c0,18.6-15.1,33.7-33.7,33.7l0,0c-18.6,0-33.7-15.1-33.7-33.7
			l0,0C336.3,1226.8,351.4,1211.7,369.9,1211.7z"/>
		<path d="M504.6,1211.7H572c18.6,0,33.7,15.1,33.7,33.7l0,0c0,18.6-15.1,33.7-33.7,33.7h-67.3c-18.6,0-33.7-15.1-33.7-33.7l0,0
			C471,1226.8,486,1211.7,504.6,1211.7z"/>
		<path d="M706.7,1211.7h202c18.6,0,33.7,15.1,33.7,33.7l0,0c0,18.6-15.1,33.7-33.7,33.7h-202c-18.6,0-33.7-15.1-33.7-33.7l0,0
			C673,1226.8,688.1,1211.7,706.7,1211.7z"/>
		<path d="M1312.7,1211.7L1312.7,1211.7c18.6,0,33.7,15.1,33.7,33.7l0,0c0,18.6-15.1,33.7-33.7,33.7l0,0
			c-18.6,0-33.7-15.1-33.7-33.7l0,0C1279,1226.8,1294.1,1211.7,1312.7,1211.7z"/>
		<path d="M1514.7,1211.7L1514.7,1211.7c18.6,0,33.7,15.1,33.7,33.7l0,0c0,18.6-15.1,33.7-33.7,33.7l0,0
			c-18.6,0-33.7-15.1-33.7-33.7l0,0C1481.1,1226.8,1496.1,1211.7,1514.7,1211.7z"/>
		<path d="M1716.8,1211.7h67.3c18.6,0,33.7,15.1,33.7,33.7l0,0c0,18.6-15.1,33.7-33.7,33.7h-67.3c-18.6,0-33.7-15.1-33.7-33.7l0,0
			C1683.1,1226.8,1698.2,1211.7,1716.8,1211.7z"/>
		<path d="M167.9,1279L167.9,1279c18.6,0,33.7,15.1,33.7,33.7l0,0c0,18.6-15.1,33.7-33.7,33.7l0,0c-18.6,0-33.7-15.1-33.7-33.7l0,0
			C134.3,1294.1,149.3,1279,167.9,1279z"/>
		<path d="M369.9,1279h67.3c18.6,0,33.7,15.1,33.7,33.7l0,0c0,18.6-15.1,33.7-33.7,33.7h-67.3c-18.6,0-33.7-15.1-33.7-33.7l0,0
			C336.3,1294.1,351.4,1279,369.9,1279z"/>
		<path d="M908.7,1279L908.7,1279c18.6,0,33.7,15.1,33.7,33.7l0,0c0,18.6-15.1,33.7-33.7,33.7l0,0c-18.6,0-33.7-15.1-33.7-33.7l0,0
			C875,1294.1,890.1,1279,908.7,1279z"/>
		<path d="M1043.4,1279H1178c18.6,0,33.7,15.1,33.7,33.7l0,0c0,18.6-15.1,33.7-33.7,33.7h-134.7c-18.6,0-33.7-15.1-33.7-33.7l0,0
			C1009.7,1294.1,1024.8,1279,1043.4,1279z"/>
		<path d="M1582.1,1279L1582.1,1279c18.6,0,33.7,15.1,33.7,33.7l0,0c0,18.6-15.1,33.7-33.7,33.7l0,0c-18.6,0-33.7-15.1-33.7-33.7
			l0,0C1548.4,1294.1,1563.5,1279,1582.1,1279z"/>
		<path d="M1716.8,1279L1716.8,1279c18.6,0,33.7,15.1,33.7,33.7l0,0c0,18.6-15.1,33.7-33.7,33.7l0,0c-18.6,0-33.7-15.1-33.7-33.7
			l0,0C1683.1,1294.1,1698.2,1279,1716.8,1279z"/>
		<path d="M1851.4,1279L1851.4,1279c18.6,0,33.7,15.1,33.7,33.7l0,0c0,18.6-15.1,33.7-33.7,33.7l0,0c-18.6,0-33.7-15.1-33.7-33.7
			l0,0C1817.8,1294.1,1832.8,1279,1851.4,1279z"/>
		<path d="M1986.1,1279h67.3c18.6,0,33.7,15.1,33.7,33.7l0,0c0,18.6-15.1,33.7-33.7,33.7h-67.3c-18.6,0-33.7-15.1-33.7-33.7l0,0
			C1952.5,1294.1,1967.5,1279,1986.1,1279z"/>
		<path d="M167.9,1346.4L167.9,1346.4c18.6,0,33.7,15.1,33.7,33.7l0,0c0,18.6-15.1,33.7-33.7,33.7l0,0c-18.6,0-33.7-15.1-33.7-33.7
			l0,0C134.3,1361.5,149.3,1346.4,167.9,1346.4z"/>
		<path d="M369.9,1346.4h202c18.6,0,33.7,15.1,33.7,33.7l0,0c0,18.6-15.1,33.7-33.7,33.7h-202c-18.6,0-33.7-15.1-33.7-33.7l0,0
			C336.3,1361.5,351.4,1346.4,369.9,1346.4z"/>
		<path d="M774,1346.4h67.3c18.6,0,33.7,15.1,33.7,33.7l0,0c0,18.6-15.1,33.7-33.7,33.7H774c-18.6,0-33.7-15.1-33.7-33.7l0,0
			C740.3,1361.5,755.4,1346.4,774,1346.4z"/>
		<path d="M976,1346.4h202c18.6,0,33.7,15.1,33.7,33.7l0,0c0,18.6-15.1,33.7-33.7,33.7H976c-18.6,0-33.7-15.1-33.7-33.7l0,0
			C942.3,1361.5,957.4,1346.4,976,1346.4z"/>
		<path d="M1312.7,1346.4h67.3c18.6,0,33.7,15.1,33.7,33.7l0,0c0,18.6-15.1,33.7-33.7,33.7h-67.3c-18.6,0-33.7-15.1-33.7-33.7l0,0
			C1279,1361.5,1294.1,1346.4,1312.7,1346.4z"/>
		<path d="M1851.4,1346.4h67.3c18.6,0,33.7,15.1,33.7,33.7l0,0c0,18.6-15.1,33.7-33.7,33.7h-67.3c-18.6,0-33.7-15.1-33.7-33.7l0,0
			C1817.8,1361.5,1832.8,1346.4,1851.4,1346.4z"/>
		<path d="M2053.5,1346.4L2053.5,1346.4c18.6,0,33.7,15.1,33.7,33.7l0,0c0,18.6-15.1,33.7-33.7,33.7l0,0
			c-18.6,0-33.7-15.1-33.7-33.7l0,0C2019.8,1361.5,2034.9,1346.4,2053.5,1346.4z"/>
		<path d="M167.9,1413.7L167.9,1413.7c18.6,0,33.7,15.1,33.7,33.7l0,0c0,18.6-15.1,33.7-33.7,33.7l0,0c-18.6,0-33.7-15.1-33.7-33.7
			l0,0C134.3,1428.8,149.3,1413.7,167.9,1413.7z"/>
		<path d="M302.6,1413.7h202c18.6,0,33.7,15.1,33.7,33.7l0,0c0,18.6-15.1,33.7-33.7,33.7h-202c-18.6,0-33.7-15.1-33.7-33.7l0,0
			C268.9,1428.8,284,1413.7,302.6,1413.7z"/>
		<path d="M706.7,1413.7L706.7,1413.7c18.6,0,33.7,15.1,33.7,33.7l0,0c0,18.6-15.1,33.7-33.7,33.7l0,0c-18.6,0-33.7-15.1-33.7-33.7
			l0,0C673,1428.8,688.1,1413.7,706.7,1413.7z"/>
		<path d="M1043.4,1413.7L1043.4,1413.7c18.6,0,33.7,15.1,33.7,33.7l0,0c0,18.6-15.1,33.7-33.7,33.7l0,0
			c-18.6,0-33.7-15.1-33.7-33.7l0,0C1009.7,1428.8,1024.8,1413.7,1043.4,1413.7z"/>
		<path d="M1178,1413.7L1178,1413.7c18.6,0,33.7,15.1,33.7,33.7l0,0c0,18.6-15.1,33.7-33.7,33.7l0,0c-18.6,0-33.7-15.1-33.7-33.7
			l0,0C1144.4,1428.8,1159.4,1413.7,1178,1413.7z"/>
		<path d="M1447.4,1413.7h336.7c18.6,0,33.7,15.1,33.7,33.7l0,0c0,18.6-15.1,33.7-33.7,33.7h-336.7c-18.6,0-33.7-15.1-33.7-33.7l0,0
			C1413.7,1428.8,1428.8,1413.7,1447.4,1413.7z"/>
		<path d="M167.9,1481.1L167.9,1481.1c18.6,0,33.7,15.1,33.7,33.7l0,0c0,18.6-15.1,33.7-33.7,33.7l0,0c-18.6,0-33.7-15.1-33.7-33.7
			l0,0C134.3,1496.1,149.3,1481.1,167.9,1481.1z"/>
		<path d="M302.6,1481.1L302.6,1481.1c18.6,0,33.7,15.1,33.7,33.7l0,0c0,18.6-15.1,33.7-33.7,33.7l0,0c-18.6,0-33.7-15.1-33.7-33.7
			l0,0C268.9,1496.1,284,1481.1,302.6,1481.1z"/>
		<path d="M504.6,1481.1H572c18.6,0,33.7,15.1,33.7,33.7l0,0c0,18.6-15.1,33.7-33.7,33.7h-67.3c-18.6,0-33.7-15.1-33.7-33.7l0,0
			C471,1496.1,486,1481.1,504.6,1481.1z"/>
		<path d="M706.7,1481.1L706.7,1481.1c18.6,0,33.7,15.1,33.7,33.7l0,0c0,18.6-15.1,33.7-33.7,33.7l0,0c-18.6,0-33.7-15.1-33.7-33.7
			l0,0C673,1496.1,688.1,1481.1,706.7,1481.1z"/>
		<path d="M841.3,1481.1L841.3,1481.1c18.6,0,33.7,15.1,33.7,33.7l0,0c0,18.6-15.1,33.7-33.7,33.7l0,0c-18.6,0-33.7-15.1-33.7-33.7
			l0,0C807.7,1496.1,822.7,1481.1,841.3,1481.1z"/>
		<path d="M1110.7,1481.1h134.7c18.6,0,33.7,15.1,33.7,33.7l0,0c0,18.6-15.1,33.7-33.7,33.7h-134.7c-18.6,0-33.7-15.1-33.7-33.7l0,0
			C1077,1496.1,1092.1,1481.1,1110.7,1481.1z"/>
		<path d="M1380.1,1481.1L1380.1,1481.1c18.6,0,33.7,15.1,33.7,33.7l0,0c0,18.6-15.1,33.7-33.7,33.7l0,0
			c-18.6,0-33.7-15.1-33.7-33.7l0,0C1346.4,1496.1,1361.5,1481.1,1380.1,1481.1z"/>
		<path d="M1514.7,1481.1h471.4c18.6,0,33.7,15.1,33.7,33.7l0,0c0,18.6-15.1,33.7-33.7,33.7h-471.4c-18.6,0-33.7-15.1-33.7-33.7l0,0
			C1481.1,1496.1,1496.1,1481.1,1514.7,1481.1z"/>
		<path d="M706.7,1548.4h134.7c18.6,0,33.7,15.1,33.7,33.7l0,0c0,18.6-15.1,33.7-33.7,33.7H706.7c-18.6,0-33.7-15.1-33.7-33.7l0,0
			C673,1563.5,688.1,1548.4,706.7,1548.4z"/>
		<path d="M1514.7,1548.4L1514.7,1548.4c18.6,0,33.7,15.1,33.7,33.7l0,0c0,18.6-15.1,33.7-33.7,33.7l0,0
			c-18.6,0-33.7-15.1-33.7-33.7l0,0C1481.1,1563.5,1496.1,1548.4,1514.7,1548.4z"/>
		<path d="M1784.1,1548.4L1784.1,1548.4c18.6,0,33.7,15.1,33.7,33.7l0,0c0,18.6-15.1,33.7-33.7,33.7l0,0
			c-18.6,0-33.7-15.1-33.7-33.7l0,0C1750.4,1563.5,1765.5,1548.4,1784.1,1548.4z"/>
		<path d="M1986.1,1548.4L1986.1,1548.4c18.6,0,33.7,15.1,33.7,33.7l0,0c0,18.6-15.1,33.7-33.7,33.7l0,0
			c-18.6,0-33.7-15.1-33.7-33.7l0,0C1952.5,1563.5,1967.5,1548.4,1986.1,1548.4z"/>
		<path d="M841.3,1615.7h67.3c18.6,0,33.7,15.1,33.7,33.7l0,0c0,18.6-15.1,33.7-33.7,33.7h-67.3c-18.6,0-33.7-15.1-33.7-33.7l0,0
			C807.7,1630.8,822.7,1615.7,841.3,1615.7z"/>
		<path d="M1312.7,1615.7L1312.7,1615.7c18.6,0,33.7,15.1,33.7,33.7l0,0c0,18.6-15.1,33.7-33.7,33.7l0,0
			c-18.6,0-33.7-15.1-33.7-33.7l0,0C1279,1630.8,1294.1,1615.7,1312.7,1615.7z"/>
		<path d="M1447.4,1615.7h67.3c18.6,0,33.7,15.1,33.7,33.7l0,0c0,18.6-15.1,33.7-33.7,33.7h-67.3c-18.6,0-33.7-15.1-33.7-33.7l0,0
			C1413.7,1630.8,1428.8,1615.7,1447.4,1615.7z"/>
		<path d="M1649.4,1615.7L1649.4,1615.7c18.6,0,33.7,15.1,33.7,33.7l0,0c0,18.6-15.1,33.7-33.7,33.7l0,0
			c-18.6,0-33.7-15.1-33.7-33.7l0,0C1615.7,1630.8,1630.8,1615.7,1649.4,1615.7z"/>
		<path d="M1784.1,1615.7h134.7c18.6,0,33.7,15.1,33.7,33.7l0,0c0,18.6-15.1,33.7-33.7,33.7h-134.7c-18.6,0-33.7-15.1-33.7-33.7l0,0
			C1750.4,1630.8,1765.5,1615.7,1784.1,1615.7z"/>
		<path d="M706.7,1683.1L706.7,1683.1c18.6,0,33.7,15.1,33.7,33.7l0,0c0,18.6-15.1,33.7-33.7,33.7l0,0c-18.6,0-33.7-15.1-33.7-33.7
			l0,0C673,1698.2,688.1,1683.1,706.7,1683.1z"/>
		<path d="M908.7,1683.1H976c18.6,0,33.7,15.1,33.7,33.7l0,0c0,18.6-15.1,33.7-33.7,33.7h-67.3c-18.6,0-33.7-15.1-33.7-33.7l0,0
			C875,1698.2,890.1,1683.1,908.7,1683.1z"/>
		<path d="M1110.7,1683.1L1110.7,1683.1c18.6,0,33.7,15.1,33.7,33.7l0,0c0,18.6-15.1,33.7-33.7,33.7l0,0
			c-18.6,0-33.7-15.1-33.7-33.7l0,0C1077,1698.2,1092.1,1683.1,1110.7,1683.1z"/>
		<path d="M1245.4,1683.1L1245.4,1683.1c18.6,0,33.7,15.1,33.7,33.7l0,0c0,18.6-15.1,33.7-33.7,33.7l0,0
			c-18.6,0-33.7-15.1-33.7-33.7l0,0C1211.7,1698.2,1226.8,1683.1,1245.4,1683.1z"/>
		<path d="M1447.4,1683.1h67.3c18.6,0,33.7,15.1,33.7,33.7l0,0c0,18.6-15.1,33.7-33.7,33.7h-67.3c-18.6,0-33.7-15.1-33.7-33.7l0,0
			C1413.7,1698.2,1428.8,1683.1,1447.4,1683.1z"/>
		<path d="M1784.1,1683.1L1784.1,1683.1c18.6,0,33.7,15.1,33.7,33.7l0,0c0,18.6-15.1,33.7-33.7,33.7l0,0
			c-18.6,0-33.7-15.1-33.7-33.7l0,0C1750.4,1698.2,1765.5,1683.1,1784.1,1683.1z"/>
		<path d="M1918.8,1683.1h134.7c18.6,0,33.7,15.1,33.7,33.7l0,0c0,18.6-15.1,33.7-33.7,33.7h-134.7c-18.6,0-33.7-15.1-33.7-33.7l0,0
			C1885.1,1698.2,1900.2,1683.1,1918.8,1683.1z"/>
		<path d="M706.7,1750.4h202c18.6,0,33.7,15.1,33.7,33.7l0,0c0,18.6-15.1,33.7-33.7,33.7h-202c-18.6,0-33.7-15.1-33.7-33.7l0,0
			C673,1765.5,688.1,1750.4,706.7,1750.4z"/>
		<path d="M1178,1750.4L1178,1750.4c18.6,0,33.7,15.1,33.7,33.7l0,0c0,18.6-15.1,33.7-33.7,33.7l0,0c-18.6,0-33.7-15.1-33.7-33.7
			l0,0C1144.4,1765.5,1159.4,1750.4,1178,1750.4z"/>
		<path d="M1312.7,1750.4h471.4c18.6,0,33.7,15.1,33.7,33.7l0,0c0,18.6-15.1,33.7-33.7,33.7h-471.4c-18.6,0-33.7-15.1-33.7-33.7l0,0
			C1279,1765.5,1294.1,1750.4,1312.7,1750.4z"/>
		<path d="M1918.8,1750.4h134.7c18.6,0,33.7,15.1,33.7,33.7l0,0c0,18.6-15.1,33.7-33.7,33.7h-134.7c-18.6,0-33.7-15.1-33.7-33.7l0,0
			C1885.1,1765.5,1900.2,1750.4,1918.8,1750.4z"/>
		<path d="M706.7,1817.8L706.7,1817.8c18.6,0,33.7,15.1,33.7,33.7l0,0c0,18.6-15.1,33.7-33.7,33.7l0,0c-18.6,0-33.7-15.1-33.7-33.7
			l0,0C673,1832.8,688.1,1817.8,706.7,1817.8z"/>
		<path d="M841.3,1817.8L841.3,1817.8c18.6,0,33.7,15.1,33.7,33.7l0,0c0,18.6-15.1,33.7-33.7,33.7l0,0c-18.6,0-33.7-15.1-33.7-33.7
			l0,0C807.7,1832.8,822.7,1817.8,841.3,1817.8z"/>
		<path d="M976,1817.8L976,1817.8c18.6,0,33.7,15.1,33.7,33.7l0,0c0,18.6-15.1,33.7-33.7,33.7l0,0c-18.6,0-33.7-15.1-33.7-33.7l0,0
			C942.3,1832.8,957.4,1817.8,976,1817.8z"/>
		<path d="M1110.7,1817.8h67.3c18.6,0,33.7,15.1,33.7,33.7l0,0c0,18.6-15.1,33.7-33.7,33.7h-67.3c-18.6,0-33.7-15.1-33.7-33.7l0,0
			C1077,1832.8,1092.1,1817.8,1110.7,1817.8z"/>
		<path d="M1514.7,1817.8L1514.7,1817.8c18.6,0,33.7,15.1,33.7,33.7l0,0c0,18.6-15.1,33.7-33.7,33.7l0,0
			c-18.6,0-33.7-15.1-33.7-33.7l0,0C1481.1,1832.8,1496.1,1817.8,1514.7,1817.8z"/>
		<path d="M1716.8,1817.8L1716.8,1817.8c18.6,0,33.7,15.1,33.7,33.7l0,0c0,18.6-15.1,33.7-33.7,33.7l0,0
			c-18.6,0-33.7-15.1-33.7-33.7l0,0C1683.1,1832.8,1698.2,1817.8,1716.8,1817.8z"/>
		<path d="M706.7,1885.1H976c18.6,0,33.7,15.1,33.7,33.7l0,0c0,18.6-15.1,33.7-33.7,33.7H706.7c-18.6,0-33.7-15.1-33.7-33.7l0,0
			C673,1900.2,688.1,1885.1,706.7,1885.1z"/>
		<path d="M1245.4,1885.1h67.3c18.6,0,33.7,15.1,33.7,33.7l0,0c0,18.6-15.1,33.7-33.7,33.7h-67.3c-18.6,0-33.7-15.1-33.7-33.7l0,0
			C1211.7,1900.2,1226.8,1885.1,1245.4,1885.1z"/>
		<path d="M1447.4,1885.1L1447.4,1885.1c18.6,0,33.7,15.1,33.7,33.7l0,0c0,18.6-15.1,33.7-33.7,33.7l0,0
			c-18.6,0-33.7-15.1-33.7-33.7l0,0C1413.7,1900.2,1428.8,1885.1,1447.4,1885.1z"/>
		<path d="M1716.8,1885.1L1716.8,1885.1c18.6,0,33.7,15.1,33.7,33.7l0,0c0,18.6-15.1,33.7-33.7,33.7l0,0
			c-18.6,0-33.7-15.1-33.7-33.7l0,0C1683.1,1900.2,1698.2,1885.1,1716.8,1885.1z"/>
		<path d="M1918.8,1885.1h67.3c18.6,0,33.7,15.1,33.7,33.7l0,0c0,18.6-15.1,33.7-33.7,33.7h-67.3c-18.6,0-33.7-15.1-33.7-33.7l0,0
			C1885.1,1900.2,1900.2,1885.1,1918.8,1885.1z"/>
		<path d="M841.3,1952.5L841.3,1952.5c18.6,0,33.7,15.1,33.7,33.7l0,0c0,18.6-15.1,33.7-33.7,33.7l0,0c-18.6,0-33.7-15.1-33.7-33.7
			l0,0C807.7,1967.5,822.7,1952.5,841.3,1952.5z"/>
		<path d="M1043.4,1952.5h336.7c18.6,0,33.7,15.1,33.7,33.7l0,0c0,18.6-15.1,33.7-33.7,33.7h-336.7c-18.6,0-33.7-15.1-33.7-33.7l0,0
			C1009.7,1967.5,1024.8,1952.5,1043.4,1952.5z"/>
		<path d="M1514.7,1952.5h67.3c18.6,0,33.7,15.1,33.7,33.7l0,0c0,18.6-15.1,33.7-33.7,33.7h-67.3c-18.6,0-33.7-15.1-33.7-33.7l0,0
			C1481.1,1967.5,1496.1,1952.5,1514.7,1952.5z"/>
		<path d="M1851.4,1952.5h67.3c18.6,0,33.7,15.1,33.7,33.7l0,0c0,18.6-15.1,33.7-33.7,33.7h-67.3c-18.6,0-33.7-15.1-33.7-33.7l0,0
			C1817.8,1967.5,1832.8,1952.5,1851.4,1952.5z"/>
		<path d="M2053.5,1952.5L2053.5,1952.5c18.6,0,33.7,15.1,33.7,33.7l0,0c0,18.6-15.1,33.7-33.7,33.7l0,0
			c-18.6,0-33.7-15.1-33.7-33.7l0,0C2019.8,1967.5,2034.9,1952.5,2053.5,1952.5z"/>
		<path d="M706.7,2019.8H774c18.6,0,33.7,15.1,33.7,33.7l0,0c0,18.6-15.1,33.7-33.7,33.7h-67.3c-18.6,0-33.7-15.1-33.7-33.7l0,0
			C673,2034.9,688.1,2019.8,706.7,2019.8z"/>
		<path d="M976,2019.8L976,2019.8c18.6,0,33.7,15.1,33.7,33.7l0,0c0,18.6-15.1,33.7-33.7,33.7l0,0c-18.6,0-33.7-15.1-33.7-33.7l0,0
			C942.3,2034.9,957.4,2019.8,976,2019.8z"/>
		<path d="M1110.7,2019.8h134.7c18.6,0,33.7,15.1,33.7,33.7l0,0c0,18.6-15.1,33.7-33.7,33.7h-134.7c-18.6,0-33.7-15.1-33.7-33.7l0,0
			C1077,2034.9,1092.1,2019.8,1110.7,2019.8z"/>
		<path d="M1447.4,2019.8h202c18.6,0,33.7,15.1,33.7,33.7l0,0c0,18.6-15.1,33.7-33.7,33.7h-202c-18.6,0-33.7-15.1-33.7-33.7l0,0
			C1413.7,2034.9,1428.8,2019.8,1447.4,2019.8z"/>
		<path d="M1784.1,2019.8h134.7c18.6,0,33.7,15.1,33.7,33.7l0,0c0,18.6-15.1,33.7-33.7,33.7h-134.7c-18.6,0-33.7-15.1-33.7-33.7l0,0
			C1750.4,2034.9,1765.5,2019.8,1784.1,2019.8z"/>
		<path d="M167.9,673L167.9,673c18.6,0,33.7,15.1,33.7,33.7l0,0c0,18.6-15.1,33.7-33.7,33.7l0,0c-18.6,0-33.7-15.1-33.7-33.7l0,0
			C134.3,688.1,149.3,673,167.9,673z"/>
		<path d="M167.9,807.7L167.9,807.7c18.6,0,33.7,15.1,33.7,33.7V976c0,18.6-15.1,33.7-33.7,33.7l0,0c-18.6,0-33.7-15.1-33.7-33.7
			V841.3C134.3,822.7,149.3,807.7,167.9,807.7z"/>
		<path d="M167.9,1279L167.9,1279c18.6,0,33.7,15.1,33.7,33.7v202c0,18.6-15.1,33.7-33.7,33.7l0,0c-18.6,0-33.7-15.1-33.7-33.7v-202
			C134.3,1294.1,149.3,1279,167.9,1279z"/>
		<path d="M235.3,740.3L235.3,740.3c18.6,0,33.7,15.1,33.7,33.7v269.4c0,18.6-15.1,33.7-33.7,33.7l0,0c-18.6,0-33.7-15.1-33.7-33.7
			V774C201.6,755.4,216.7,740.3,235.3,740.3z"/>
		<path d="M235.3,1144.4L235.3,1144.4c18.6,0,33.7,15.1,33.7,33.7l0,0c0,18.6-15.1,33.7-33.7,33.7l0,0c-18.6,0-33.7-15.1-33.7-33.7
			l0,0C201.6,1159.4,216.7,1144.4,235.3,1144.4z"/>
		<path d="M302.6,673L302.6,673c18.6,0,33.7,15.1,33.7,33.7V774c0,18.6-15.1,33.7-33.7,33.7l0,0c-18.6,0-33.7-15.1-33.7-33.7v-67.3
			C268.9,688.1,284,673,302.6,673z"/>
		<path d="M302.6,942.3L302.6,942.3c18.6,0,33.7,15.1,33.7,33.7l0,0c0,18.6-15.1,33.7-33.7,33.7l0,0c-18.6,0-33.7-15.1-33.7-33.7
			l0,0C268.9,957.4,284,942.3,302.6,942.3z"/>
		<path d="M302.6,1077L302.6,1077c18.6,0,33.7,15.1,33.7,33.7v67.3c0,18.6-15.1,33.7-33.7,33.7l0,0c-18.6,0-33.7-15.1-33.7-33.7
			v-67.3C268.9,1092.1,284,1077,302.6,1077z"/>
		<path d="M302.6,1413.7L302.6,1413.7c18.6,0,33.7,15.1,33.7,33.7v67.3c0,18.6-15.1,33.7-33.7,33.7l0,0c-18.6,0-33.7-15.1-33.7-33.7
			v-67.3C268.9,1428.8,284,1413.7,302.6,1413.7z"/>
		<path d="M369.9,673L369.9,673c18.6,0,33.7,15.1,33.7,33.7v134.7c0,18.6-15.1,33.7-33.7,33.7l0,0c-18.6,0-33.7-15.1-33.7-33.7
			V706.7C336.3,688.1,351.4,673,369.9,673z"/>
		<path d="M369.9,942.3L369.9,942.3c18.6,0,33.7,15.1,33.7,33.7v67.3c0,18.6-15.1,33.7-33.7,33.7l0,0c-18.6,0-33.7-15.1-33.7-33.7
			V976C336.3,957.4,351.4,942.3,369.9,942.3z"/>
		<path d="M369.9,1211.7L369.9,1211.7c18.6,0,33.7,15.1,33.7,33.7v202c0,18.6-15.1,33.7-33.7,33.7l0,0c-18.6,0-33.7-15.1-33.7-33.7
			v-202C336.3,1226.8,351.4,1211.7,369.9,1211.7z"/>
		<path d="M437.3,673L437.3,673c18.6,0,33.7,15.1,33.7,33.7V774c0,18.6-15.1,33.7-33.7,33.7l0,0c-18.6,0-33.7-15.1-33.7-33.7v-67.3
			C403.6,688.1,418.7,673,437.3,673z"/>
		<path d="M437.3,875L437.3,875c18.6,0,33.7,15.1,33.7,33.7l0,0c0,18.6-15.1,33.7-33.7,33.7l0,0c-18.6,0-33.7-15.1-33.7-33.7l0,0
			C403.6,890.1,418.7,875,437.3,875z"/>
		<path d="M437.3,1144.4L437.3,1144.4c18.6,0,33.7,15.1,33.7,33.7l0,0c0,18.6-15.1,33.7-33.7,33.7l0,0c-18.6,0-33.7-15.1-33.7-33.7
			l0,0C403.6,1159.4,418.7,1144.4,437.3,1144.4z"/>
		<path d="M437.3,1279L437.3,1279c18.6,0,33.7,15.1,33.7,33.7v134.7c0,18.6-15.1,33.7-33.7,33.7l0,0c-18.6,0-33.7-15.1-33.7-33.7
			v-134.7C403.6,1294.1,418.7,1279,437.3,1279z"/>
		<path d="M504.6,673L504.6,673c18.6,0,33.7,15.1,33.7,33.7l0,0c0,18.6-15.1,33.7-33.7,33.7l0,0c-18.6,0-33.7-15.1-33.7-33.7l0,0
			C471,688.1,486,673,504.6,673z"/>
		<path d="M504.6,807.7L504.6,807.7c18.6,0,33.7,15.1,33.7,33.7v67.3c0,18.6-15.1,33.7-33.7,33.7l0,0c-18.6,0-33.7-15.1-33.7-33.7
			v-67.3C471,822.7,486,807.7,504.6,807.7z"/>
		<path d="M504.6,1077L504.6,1077c18.6,0,33.7,15.1,33.7,33.7l0,0c0,18.6-15.1,33.7-33.7,33.7l0,0c-18.6,0-33.7-15.1-33.7-33.7l0,0
			C471,1092.1,486,1077,504.6,1077z"/>
		<path d="M504.6,1211.7L504.6,1211.7c18.6,0,33.7,15.1,33.7,33.7l0,0c0,18.6-15.1,33.7-33.7,33.7l0,0c-18.6,0-33.7-15.1-33.7-33.7
			l0,0C471,1226.8,486,1211.7,504.6,1211.7z"/>
		<path d="M504.6,1346.4L504.6,1346.4c18.6,0,33.7,15.1,33.7,33.7v134.7c0,18.6-15.1,33.7-33.7,33.7l0,0
			c-18.6,0-33.7-15.1-33.7-33.7v-134.7C471,1361.5,486,1346.4,504.6,1346.4z"/>
		<path d="M572,673L572,673c18.6,0,33.7,15.1,33.7,33.7l0,0c0,18.6-15.1,33.7-33.7,33.7l0,0c-18.6,0-33.7-15.1-33.7-33.7l0,0
			C538.3,688.1,553.4,673,572,673z"/>
		<path d="M572,807.7L572,807.7c18.6,0,33.7,15.1,33.7,33.7l0,0c0,18.6-15.1,33.7-33.7,33.7l0,0c-18.6,0-33.7-15.1-33.7-33.7l0,0
			C538.3,822.7,553.4,807.7,572,807.7z"/>
		<path d="M572,942.3L572,942.3c18.6,0,33.7,15.1,33.7,33.7l0,0c0,18.6-15.1,33.7-33.7,33.7l0,0c-18.6,0-33.7-15.1-33.7-33.7l0,0
			C538.3,957.4,553.4,942.3,572,942.3z"/>
		<path d="M572,1077L572,1077c18.6,0,33.7,15.1,33.7,33.7l0,0c0,18.6-15.1,33.7-33.7,33.7l0,0c-18.6,0-33.7-15.1-33.7-33.7l0,0
			C538.3,1092.1,553.4,1077,572,1077z"/>
		<path d="M572,1211.7L572,1211.7c18.6,0,33.7,15.1,33.7,33.7l0,0c0,18.6-15.1,33.7-33.7,33.7l0,0c-18.6,0-33.7-15.1-33.7-33.7l0,0
			C538.3,1226.8,553.4,1211.7,572,1211.7z"/>
		<path d="M572,1346.4L572,1346.4c18.6,0,33.7,15.1,33.7,33.7l0,0c0,18.6-15.1,33.7-33.7,33.7l0,0c-18.6,0-33.7-15.1-33.7-33.7l0,0
			C538.3,1361.5,553.4,1346.4,572,1346.4z"/>
		<path d="M572,1481.1L572,1481.1c18.6,0,33.7,15.1,33.7,33.7l0,0c0,18.6-15.1,33.7-33.7,33.7l0,0c-18.6,0-33.7-15.1-33.7-33.7l0,0
			C538.3,1496.1,553.4,1481.1,572,1481.1z"/>
		<path d="M639.3,942.3L639.3,942.3c18.6,0,33.7,15.1,33.7,33.7v67.3c0,18.6-15.1,33.7-33.7,33.7l0,0c-18.6,0-33.7-15.1-33.7-33.7
			V976C605.6,957.4,620.7,942.3,639.3,942.3z"/>
		<path d="M706.7,268.9L706.7,268.9c18.6,0,33.7,15.1,33.7,33.7v336.7c0,18.6-15.1,33.7-33.7,33.7l0,0c-18.6,0-33.7-15.1-33.7-33.7
			V302.6C673,284,688.1,268.9,706.7,268.9z"/>
		<path d="M706.7,942.3L706.7,942.3c18.6,0,33.7,15.1,33.7,33.7v269.4c0,18.6-15.1,33.7-33.7,33.7l0,0c-18.6,0-33.7-15.1-33.7-33.7
			V976C673,957.4,688.1,942.3,706.7,942.3z"/>
		<path d="M706.7,1413.7L706.7,1413.7c18.6,0,33.7,15.1,33.7,33.7v134.7c0,18.6-15.1,33.7-33.7,33.7l0,0
			c-18.6,0-33.7-15.1-33.7-33.7v-134.7C673,1428.8,688.1,1413.7,706.7,1413.7z"/>
		<path d="M706.7,1683.1L706.7,1683.1c18.6,0,33.7,15.1,33.7,33.7v202c0,18.6-15.1,33.7-33.7,33.7l0,0c-18.6,0-33.7-15.1-33.7-33.7
			v-202C673,1698.2,688.1,1683.1,706.7,1683.1z"/>
		<path d="M706.7,2019.8L706.7,2019.8c18.6,0,33.7,15.1,33.7,33.7l0,0c0,18.6-15.1,33.7-33.7,33.7l0,0c-18.6,0-33.7-15.1-33.7-33.7
			l0,0C673,2034.9,688.1,2019.8,706.7,2019.8z"/>
		<path d="M774,336.3L774,336.3c18.6,0,33.7,15.1,33.7,33.7v67.3c0,18.6-15.1,33.7-33.7,33.7l0,0c-18.6,0-33.7-15.1-33.7-33.7v-67.3
			C740.3,351.4,755.4,336.3,774,336.3z"/>
		<path d="M774,740.3L774,740.3c18.6,0,33.7,15.1,33.7,33.7l0,0c0,18.6-15.1,33.7-33.7,33.7l0,0c-18.6,0-33.7-15.1-33.7-33.7l0,0
			C740.3,755.4,755.4,740.3,774,740.3z"/>
		<path d="M774,875L774,875c18.6,0,33.7,15.1,33.7,33.7l0,0c0,18.6-15.1,33.7-33.7,33.7l0,0c-18.6,0-33.7-15.1-33.7-33.7l0,0
			C740.3,890.1,755.4,875,774,875z"/>
		<path d="M774,1009.7L774,1009.7c18.6,0,33.7,15.1,33.7,33.7v202c0,18.6-15.1,33.7-33.7,33.7l0,0c-18.6,0-33.7-15.1-33.7-33.7v-202
			C740.3,1024.8,755.4,1009.7,774,1009.7z"/>
		<path d="M774,1346.4L774,1346.4c18.6,0,33.7,15.1,33.7,33.7l0,0c0,18.6-15.1,33.7-33.7,33.7l0,0c-18.6,0-33.7-15.1-33.7-33.7l0,0
			C740.3,1361.5,755.4,1346.4,774,1346.4z"/>
		<path d="M774,1548.4L774,1548.4c18.6,0,33.7,15.1,33.7,33.7l0,0c0,18.6-15.1,33.7-33.7,33.7l0,0c-18.6,0-33.7-15.1-33.7-33.7l0,0
			C740.3,1563.5,755.4,1548.4,774,1548.4z"/>
		<path d="M774,1750.4L774,1750.4c18.6,0,33.7,15.1,33.7,33.7l0,0c0,18.6-15.1,33.7-33.7,33.7l0,0c-18.6,0-33.7-15.1-33.7-33.7l0,0
			C740.3,1765.5,755.4,1750.4,774,1750.4z"/>
		<path d="M774,1885.1L774,1885.1c18.6,0,33.7,15.1,33.7,33.7l0,0c0,18.6-15.1,33.7-33.7,33.7l0,0c-18.6,0-33.7-15.1-33.7-33.7l0,0
			C740.3,1900.2,755.4,1885.1,774,1885.1z"/>
		<path d="M774,2019.8L774,2019.8c18.6,0,33.7,15.1,33.7,33.7l0,0c0,18.6-15.1,33.7-33.7,33.7l0,0c-18.6,0-33.7-15.1-33.7-33.7l0,0
			C740.3,2034.9,755.4,2019.8,774,2019.8z"/>
		<path d="M841.3,268.9L841.3,268.9c18.6,0,33.7,15.1,33.7,33.7l0,0c0,18.6-15.1,33.7-33.7,33.7l0,0c-18.6,0-33.7-15.1-33.7-33.7
			l0,0C807.7,284,822.7,268.9,841.3,268.9z"/>
		<path d="M841.3,471L841.3,471c18.6,0,33.7,15.1,33.7,33.7v134.7c0,18.6-15.1,33.7-33.7,33.7l0,0c-18.6,0-33.7-15.1-33.7-33.7
			V504.6C807.7,486,822.7,471,841.3,471z"/>
		<path d="M841.3,740.3L841.3,740.3c18.6,0,33.7,15.1,33.7,33.7l0,0c0,18.6-15.1,33.7-33.7,33.7l0,0c-18.6,0-33.7-15.1-33.7-33.7
			l0,0C807.7,755.4,822.7,740.3,841.3,740.3z"/>
		<path d="M841.3,875L841.3,875c18.6,0,33.7,15.1,33.7,33.7V976c0,18.6-15.1,33.7-33.7,33.7l0,0c-18.6,0-33.7-15.1-33.7-33.7v-67.3
			C807.7,890.1,822.7,875,841.3,875z"/>
		<path d="M841.3,1077L841.3,1077c18.6,0,33.7,15.1,33.7,33.7v134.7c0,18.6-15.1,33.7-33.7,33.7l0,0c-18.6,0-33.7-15.1-33.7-33.7
			v-134.7C807.7,1092.1,822.7,1077,841.3,1077z"/>
		<path d="M841.3,1346.4L841.3,1346.4c18.6,0,33.7,15.1,33.7,33.7l0,0c0,18.6-15.1,33.7-33.7,33.7l0,0c-18.6,0-33.7-15.1-33.7-33.7
			l0,0C807.7,1361.5,822.7,1346.4,841.3,1346.4z"/>
		<path d="M841.3,1481.1L841.3,1481.1c18.6,0,33.7,15.1,33.7,33.7v134.7c0,18.6-15.1,33.7-33.7,33.7l0,0
			c-18.6,0-33.7-15.1-33.7-33.7v-134.7C807.7,1496.1,822.7,1481.1,841.3,1481.1z"/>
		<path d="M841.3,1750.4L841.3,1750.4c18.6,0,33.7,15.1,33.7,33.7v202c0,18.6-15.1,33.7-33.7,33.7l0,0c-18.6,0-33.7-15.1-33.7-33.7
			v-202C807.7,1765.5,822.7,1750.4,841.3,1750.4z"/>
		<path d="M908.7,740.3L908.7,740.3c18.6,0,33.7,15.1,33.7,33.7v134.7c0,18.6-15.1,33.7-33.7,33.7l0,0c-18.6,0-33.7-15.1-33.7-33.7
			V774C875,755.4,890.1,740.3,908.7,740.3z"/>
		<path d="M908.7,1009.7L908.7,1009.7c18.6,0,33.7,15.1,33.7,33.7l0,0c0,18.6-15.1,33.7-33.7,33.7l0,0c-18.6,0-33.7-15.1-33.7-33.7
			l0,0C875,1024.8,890.1,1009.7,908.7,1009.7z"/>
		<path d="M908.7,1211.7L908.7,1211.7c18.6,0,33.7,15.1,33.7,33.7v67.3c0,18.6-15.1,33.7-33.7,33.7l0,0c-18.6,0-33.7-15.1-33.7-33.7
			v-67.3C875,1226.8,890.1,1211.7,908.7,1211.7z"/>
		<path d="M908.7,1615.7L908.7,1615.7c18.6,0,33.7,15.1,33.7,33.7v134.7c0,18.6-15.1,33.7-33.7,33.7l0,0
			c-18.6,0-33.7-15.1-33.7-33.7v-134.7C875,1630.8,890.1,1615.7,908.7,1615.7z"/>
		<path d="M908.7,1885.1L908.7,1885.1c18.6,0,33.7,15.1,33.7,33.7l0,0c0,18.6-15.1,33.7-33.7,33.7l0,0c-18.6,0-33.7-15.1-33.7-33.7
			l0,0C875,1900.2,890.1,1885.1,908.7,1885.1z"/>
		<path d="M976,134.3L976,134.3c18.6,0,33.7,15.1,33.7,33.7v134.7c0,18.6-15.1,33.7-33.7,33.7l0,0c-18.6,0-33.7-15.1-33.7-33.7
			V167.9C942.3,149.3,957.4,134.3,976,134.3z"/>
		<path d="M976,403.6L976,403.6c18.6,0,33.7,15.1,33.7,33.7l0,0c0,18.6-15.1,33.7-33.7,33.7l0,0c-18.6,0-33.7-15.1-33.7-33.7l0,0
			C942.3,418.7,957.4,403.6,976,403.6z"/>
		<path d="M976,538.3L976,538.3c18.6,0,33.7,15.1,33.7,33.7v202c0,18.6-15.1,33.7-33.7,33.7l0,0c-18.6,0-33.7-15.1-33.7-33.7V572
			C942.3,553.4,957.4,538.3,976,538.3z"/>
		<path d="M976,875L976,875c18.6,0,33.7,15.1,33.7,33.7V976c0,18.6-15.1,33.7-33.7,33.7l0,0c-18.6,0-33.7-15.1-33.7-33.7v-67.3
			C942.3,890.1,957.4,875,976,875z"/>
		<path d="M976,1077L976,1077c18.6,0,33.7,15.1,33.7,33.7l0,0c0,18.6-15.1,33.7-33.7,33.7l0,0c-18.6,0-33.7-15.1-33.7-33.7l0,0
			C942.3,1092.1,957.4,1077,976,1077z"/>
		<path d="M976,1346.4L976,1346.4c18.6,0,33.7,15.1,33.7,33.7l0,0c0,18.6-15.1,33.7-33.7,33.7l0,0c-18.6,0-33.7-15.1-33.7-33.7l0,0
			C942.3,1361.5,957.4,1346.4,976,1346.4z"/>
		<path d="M976,1683.1L976,1683.1c18.6,0,33.7,15.1,33.7,33.7l0,0c0,18.6-15.1,33.7-33.7,33.7l0,0c-18.6,0-33.7-15.1-33.7-33.7l0,0
			C942.3,1698.2,957.4,1683.1,976,1683.1z"/>
		<path d="M976,1817.8L976,1817.8c18.6,0,33.7,15.1,33.7,33.7v67.3c0,18.6-15.1,33.7-33.7,33.7l0,0c-18.6,0-33.7-15.1-33.7-33.7
			v-67.3C942.3,1832.8,957.4,1817.8,976,1817.8z"/>
		<path d="M976,2019.8L976,2019.8c18.6,0,33.7,15.1,33.7,33.7l0,0c0,18.6-15.1,33.7-33.7,33.7l0,0c-18.6,0-33.7-15.1-33.7-33.7l0,0
			C942.3,2034.9,957.4,2019.8,976,2019.8z"/>
		<path d="M1043.4,134.3L1043.4,134.3c18.6,0,33.7,15.1,33.7,33.7v134.7c0,18.6-15.1,33.7-33.7,33.7l0,0
			c-18.6,0-33.7-15.1-33.7-33.7V167.9C1009.7,149.3,1024.8,134.3,1043.4,134.3z"/>
		<path d="M1043.4,740.3L1043.4,740.3c18.6,0,33.7,15.1,33.7,33.7v134.7c0,18.6-15.1,33.7-33.7,33.7l0,0
			c-18.6,0-33.7-15.1-33.7-33.7V774C1009.7,755.4,1024.8,740.3,1043.4,740.3z"/>
		<path d="M1043.4,1279L1043.4,1279c18.6,0,33.7,15.1,33.7,33.7v134.7c0,18.6-15.1,33.7-33.7,33.7l0,0c-18.6,0-33.7-15.1-33.7-33.7
			v-134.7C1009.7,1294.1,1024.8,1279,1043.4,1279z"/>
		<path d="M1043.4,1952.5L1043.4,1952.5c18.6,0,33.7,15.1,33.7,33.7l0,0c0,18.6-15.1,33.7-33.7,33.7l0,0
			c-18.6,0-33.7-15.1-33.7-33.7l0,0C1009.7,1967.5,1024.8,1952.5,1043.4,1952.5z"/>
		<path d="M1110.7,134.3L1110.7,134.3c18.6,0,33.7,15.1,33.7,33.7v67.3c0,18.6-15.1,33.7-33.7,33.7l0,0c-18.6,0-33.7-15.1-33.7-33.7
			v-67.3C1077,149.3,1092.1,134.3,1110.7,134.3z"/>
		<path d="M1110.7,336.3L1110.7,336.3c18.6,0,33.7,15.1,33.7,33.7l0,0c0,18.6-15.1,33.7-33.7,33.7l0,0c-18.6,0-33.7-15.1-33.7-33.7
			l0,0C1077,351.4,1092.1,336.3,1110.7,336.3z"/>
		<path d="M1110.7,538.3L1110.7,538.3c18.6,0,33.7,15.1,33.7,33.7v67.3c0,18.6-15.1,33.7-33.7,33.7l0,0c-18.6,0-33.7-15.1-33.7-33.7
			V572C1077,553.4,1092.1,538.3,1110.7,538.3z"/>
		<path d="M1110.7,740.3L1110.7,740.3c18.6,0,33.7,15.1,33.7,33.7v67.3c0,18.6-15.1,33.7-33.7,33.7l0,0c-18.6,0-33.7-15.1-33.7-33.7
			V774C1077,755.4,1092.1,740.3,1110.7,740.3z"/>
		<path d="M1110.7,942.3L1110.7,942.3c18.6,0,33.7,15.1,33.7,33.7l0,0c0,18.6-15.1,33.7-33.7,33.7l0,0c-18.6,0-33.7-15.1-33.7-33.7
			l0,0C1077,957.4,1092.1,942.3,1110.7,942.3z"/>
		<path d="M1110.7,1144.4L1110.7,1144.4c18.6,0,33.7,15.1,33.7,33.7l0,0c0,18.6-15.1,33.7-33.7,33.7l0,0
			c-18.6,0-33.7-15.1-33.7-33.7l0,0C1077,1159.4,1092.1,1144.4,1110.7,1144.4z"/>
		<path d="M1110.7,1279L1110.7,1279c18.6,0,33.7,15.1,33.7,33.7v67.3c0,18.6-15.1,33.7-33.7,33.7l0,0c-18.6,0-33.7-15.1-33.7-33.7
			v-67.3C1077,1294.1,1092.1,1279,1110.7,1279z"/>
		<path d="M1110.7,1481.1L1110.7,1481.1c18.6,0,33.7,15.1,33.7,33.7l0,0c0,18.6-15.1,33.7-33.7,33.7l0,0
			c-18.6,0-33.7-15.1-33.7-33.7l0,0C1077,1496.1,1092.1,1481.1,1110.7,1481.1z"/>
		<path d="M1110.7,1683.1L1110.7,1683.1c18.6,0,33.7,15.1,33.7,33.7l0,0c0,18.6-15.1,33.7-33.7,33.7l0,0
			c-18.6,0-33.7-15.1-33.7-33.7l0,0C1077,1698.2,1092.1,1683.1,1110.7,1683.1z"/>
		<path d="M1110.7,1817.8L1110.7,1817.8c18.6,0,33.7,15.1,33.7,33.7l0,0c0,18.6-15.1,33.7-33.7,33.7l0,0
			c-18.6,0-33.7-15.1-33.7-33.7l0,0C1077,1832.8,1092.1,1817.8,1110.7,1817.8z"/>
		<path d="M1110.7,1952.5L1110.7,1952.5c18.6,0,33.7,15.1,33.7,33.7v67.3c0,18.6-15.1,33.7-33.7,33.7l0,0
			c-18.6,0-33.7-15.1-33.7-33.7v-67.3C1077,1967.5,1092.1,1952.5,1110.7,1952.5z"/>
		<path d="M1178,134.3L1178,134.3c18.6,0,33.7,15.1,33.7,33.7v269.4c0,18.6-15.1,33.7-33.7,33.7l0,0c-18.6,0-33.7-15.1-33.7-33.7
			V167.9C1144.4,149.3,1159.4,134.3,1178,134.3z"/>
		<path d="M1178,740.3L1178,740.3c18.6,0,33.7,15.1,33.7,33.7v269.4c0,18.6-15.1,33.7-33.7,33.7l0,0c-18.6,0-33.7-15.1-33.7-33.7
			V774C1144.4,755.4,1159.4,740.3,1178,740.3z"/>
		<path d="M1178,1279L1178,1279c18.6,0,33.7,15.1,33.7,33.7v202c0,18.6-15.1,33.7-33.7,33.7l0,0c-18.6,0-33.7-15.1-33.7-33.7v-202
			C1144.4,1294.1,1159.4,1279,1178,1279z"/>
		<path d="M1178,1750.4L1178,1750.4c18.6,0,33.7,15.1,33.7,33.7v67.3c0,18.6-15.1,33.7-33.7,33.7l0,0c-18.6,0-33.7-15.1-33.7-33.7
			v-67.3C1144.4,1765.5,1159.4,1750.4,1178,1750.4z"/>
		<path d="M1178,1952.5L1178,1952.5c18.6,0,33.7,15.1,33.7,33.7v67.3c0,18.6-15.1,33.7-33.7,33.7l0,0c-18.6,0-33.7-15.1-33.7-33.7
			v-67.3C1144.4,1967.5,1159.4,1952.5,1178,1952.5z"/>
		<path d="M1245.4,201.6L1245.4,201.6c18.6,0,33.7,15.1,33.7,33.7l0,0c0,18.6-15.1,33.7-33.7,33.7l0,0c-18.6,0-33.7-15.1-33.7-33.7
			l0,0C1211.7,216.7,1226.8,201.6,1245.4,201.6z"/>
		<path d="M1245.4,403.6L1245.4,403.6c18.6,0,33.7,15.1,33.7,33.7l0,0c0,18.6-15.1,33.7-33.7,33.7l0,0c-18.6,0-33.7-15.1-33.7-33.7
			l0,0C1211.7,418.7,1226.8,403.6,1245.4,403.6z"/>
		<path d="M1245.4,538.3L1245.4,538.3c18.6,0,33.7,15.1,33.7,33.7v134.7c0,18.6-15.1,33.7-33.7,33.7l0,0
			c-18.6,0-33.7-15.1-33.7-33.7V572C1211.7,553.4,1226.8,538.3,1245.4,538.3z"/>
		<path d="M1245.4,807.7L1245.4,807.7c18.6,0,33.7,15.1,33.7,33.7l0,0c0,18.6-15.1,33.7-33.7,33.7l0,0c-18.6,0-33.7-15.1-33.7-33.7
			l0,0C1211.7,822.7,1226.8,807.7,1245.4,807.7z"/>
		<path d="M1245.4,1009.7L1245.4,1009.7c18.6,0,33.7,15.1,33.7,33.7l0,0c0,18.6-15.1,33.7-33.7,33.7l0,0
			c-18.6,0-33.7-15.1-33.7-33.7l0,0C1211.7,1024.8,1226.8,1009.7,1245.4,1009.7z"/>
		<path d="M1245.4,1144.4L1245.4,1144.4c18.6,0,33.7,15.1,33.7,33.7l0,0c0,18.6-15.1,33.7-33.7,33.7l0,0
			c-18.6,0-33.7-15.1-33.7-33.7l0,0C1211.7,1159.4,1226.8,1144.4,1245.4,1144.4z"/>
		<path d="M1245.4,1481.1L1245.4,1481.1c18.6,0,33.7,15.1,33.7,33.7l0,0c0,18.6-15.1,33.7-33.7,33.7l0,0
			c-18.6,0-33.7-15.1-33.7-33.7l0,0C1211.7,1496.1,1226.8,1481.1,1245.4,1481.1z"/>
		<path d="M1245.4,1683.1L1245.4,1683.1c18.6,0,33.7,15.1,33.7,33.7l0,0c0,18.6-15.1,33.7-33.7,33.7l0,0
			c-18.6,0-33.7-15.1-33.7-33.7l0,0C1211.7,1698.2,1226.8,1683.1,1245.4,1683.1z"/>
		<path d="M1245.4,1885.1L1245.4,1885.1c18.6,0,33.7,15.1,33.7,33.7v134.7c0,18.6-15.1,33.7-33.7,33.7l0,0
			c-18.6,0-33.7-15.1-33.7-33.7v-134.7C1211.7,1900.2,1226.8,1885.1,1245.4,1885.1z"/>
		<path d="M1312.7,201.6L1312.7,201.6c18.6,0,33.7,15.1,33.7,33.7l0,0c0,18.6-15.1,33.7-33.7,33.7l0,0c-18.6,0-33.7-15.1-33.7-33.7
			l0,0C1279,216.7,1294.1,201.6,1312.7,201.6z"/>
		<path d="M1312.7,336.3L1312.7,336.3c18.6,0,33.7,15.1,33.7,33.7l0,0c0,18.6-15.1,33.7-33.7,33.7l0,0c-18.6,0-33.7-15.1-33.7-33.7
			l0,0C1279,351.4,1294.1,336.3,1312.7,336.3z"/>
		<path d="M1312.7,471L1312.7,471c18.6,0,33.7,15.1,33.7,33.7l0,0c0,18.6-15.1,33.7-33.7,33.7l0,0c-18.6,0-33.7-15.1-33.7-33.7l0,0
			C1279,486,1294.1,471,1312.7,471z"/>
		<path d="M1312.7,605.6L1312.7,605.6c18.6,0,33.7,15.1,33.7,33.7v67.3c0,18.6-15.1,33.7-33.7,33.7l0,0c-18.6,0-33.7-15.1-33.7-33.7
			v-67.3C1279,620.7,1294.1,605.6,1312.7,605.6z"/>
		<path d="M1312.7,807.7L1312.7,807.7c18.6,0,33.7,15.1,33.7,33.7v67.3c0,18.6-15.1,33.7-33.7,33.7l0,0c-18.6,0-33.7-15.1-33.7-33.7
			v-67.3C1279,822.7,1294.1,807.7,1312.7,807.7z"/>
		<path d="M1312.7,1077L1312.7,1077c18.6,0,33.7,15.1,33.7,33.7v134.7c0,18.6-15.1,33.7-33.7,33.7l0,0c-18.6,0-33.7-15.1-33.7-33.7
			v-134.7C1279,1092.1,1294.1,1077,1312.7,1077z"/>
		<path d="M1312.7,1346.4L1312.7,1346.4c18.6,0,33.7,15.1,33.7,33.7l0,0c0,18.6-15.1,33.7-33.7,33.7l0,0
			c-18.6,0-33.7-15.1-33.7-33.7l0,0C1279,1361.5,1294.1,1346.4,1312.7,1346.4z"/>
		<path d="M1312.7,1615.7L1312.7,1615.7c18.6,0,33.7,15.1,33.7,33.7l0,0c0,18.6-15.1,33.7-33.7,33.7l0,0
			c-18.6,0-33.7-15.1-33.7-33.7l0,0C1279,1630.8,1294.1,1615.7,1312.7,1615.7z"/>
		<path d="M1312.7,1750.4L1312.7,1750.4c18.6,0,33.7,15.1,33.7,33.7l0,0c0,18.6-15.1,33.7-33.7,33.7l0,0
			c-18.6,0-33.7-15.1-33.7-33.7l0,0C1279,1765.5,1294.1,1750.4,1312.7,1750.4z"/>
		<path d="M1312.7,1885.1L1312.7,1885.1c18.6,0,33.7,15.1,33.7,33.7v67.3c0,18.6-15.1,33.7-33.7,33.7l0,0
			c-18.6,0-33.7-15.1-33.7-33.7v-67.3C1279,1900.2,1294.1,1885.1,1312.7,1885.1z"/>
		<path d="M1380.1,134.3L1380.1,134.3c18.6,0,33.7,15.1,33.7,33.7l0,0c0,18.6-15.1,33.7-33.7,33.7l0,0c-18.6,0-33.7-15.1-33.7-33.7
			l0,0C1346.4,149.3,1361.5,134.3,1380.1,134.3z"/>
		<path d="M1380.1,268.9L1380.1,268.9c18.6,0,33.7,15.1,33.7,33.7v67.3c0,18.6-15.1,33.7-33.7,33.7l0,0c-18.6,0-33.7-15.1-33.7-33.7
			v-67.3C1346.4,284,1361.5,268.9,1380.1,268.9z"/>
		<path d="M1380.1,538.3L1380.1,538.3c18.6,0,33.7,15.1,33.7,33.7v67.3c0,18.6-15.1,33.7-33.7,33.7l0,0c-18.6,0-33.7-15.1-33.7-33.7
			V572C1346.4,553.4,1361.5,538.3,1380.1,538.3z"/>
		<path d="M1380.1,875L1380.1,875c18.6,0,33.7,15.1,33.7,33.7l0,0c0,18.6-15.1,33.7-33.7,33.7l0,0c-18.6,0-33.7-15.1-33.7-33.7l0,0
			C1346.4,890.1,1361.5,875,1380.1,875z"/>
		<path d="M1380.1,1077L1380.1,1077c18.6,0,33.7,15.1,33.7,33.7v67.3c0,18.6-15.1,33.7-33.7,33.7l0,0c-18.6,0-33.7-15.1-33.7-33.7
			v-67.3C1346.4,1092.1,1361.5,1077,1380.1,1077z"/>
		<path d="M1380.1,1346.4L1380.1,1346.4c18.6,0,33.7,15.1,33.7,33.7l0,0c0,18.6-15.1,33.7-33.7,33.7l0,0
			c-18.6,0-33.7-15.1-33.7-33.7l0,0C1346.4,1361.5,1361.5,1346.4,1380.1,1346.4z"/>
		<path d="M1380.1,1481.1L1380.1,1481.1c18.6,0,33.7,15.1,33.7,33.7l0,0c0,18.6-15.1,33.7-33.7,33.7l0,0
			c-18.6,0-33.7-15.1-33.7-33.7l0,0C1346.4,1496.1,1361.5,1481.1,1380.1,1481.1z"/>
		<path d="M1380.1,1750.4L1380.1,1750.4c18.6,0,33.7,15.1,33.7,33.7l0,0c0,18.6-15.1,33.7-33.7,33.7l0,0
			c-18.6,0-33.7-15.1-33.7-33.7l0,0C1346.4,1765.5,1361.5,1750.4,1380.1,1750.4z"/>
		<path d="M1380.1,1952.5L1380.1,1952.5c18.6,0,33.7,15.1,33.7,33.7l0,0c0,18.6-15.1,33.7-33.7,33.7l0,0
			c-18.6,0-33.7-15.1-33.7-33.7l0,0C1346.4,1967.5,1361.5,1952.5,1380.1,1952.5z"/>
		<path d="M1447.4,134.3L1447.4,134.3c18.6,0,33.7,15.1,33.7,33.7v134.7c0,18.6-15.1,33.7-33.7,33.7l0,0
			c-18.6,0-33.7-15.1-33.7-33.7V167.9C1413.7,149.3,1428.8,134.3,1447.4,134.3z"/>
		<path d="M1447.4,403.6L1447.4,403.6c18.6,0,33.7,15.1,33.7,33.7l0,0c0,18.6-15.1,33.7-33.7,33.7l0,0c-18.6,0-33.7-15.1-33.7-33.7
			l0,0C1413.7,418.7,1428.8,403.6,1447.4,403.6z"/>
		<path d="M1447.4,605.6L1447.4,605.6c18.6,0,33.7,15.1,33.7,33.7l0,0c0,18.6-15.1,33.7-33.7,33.7l0,0c-18.6,0-33.7-15.1-33.7-33.7
			l0,0C1413.7,620.7,1428.8,605.6,1447.4,605.6z"/>
		<path d="M1447.4,875L1447.4,875c18.6,0,33.7,15.1,33.7,33.7l0,0c0,18.6-15.1,33.7-33.7,33.7l0,0c-18.6,0-33.7-15.1-33.7-33.7l0,0
			C1413.7,890.1,1428.8,875,1447.4,875z"/>
		<path d="M1447.4,1009.7L1447.4,1009.7c18.6,0,33.7,15.1,33.7,33.7l0,0c0,18.6-15.1,33.7-33.7,33.7l0,0
			c-18.6,0-33.7-15.1-33.7-33.7l0,0C1413.7,1024.8,1428.8,1009.7,1447.4,1009.7z"/>
		<path d="M1447.4,1144.4L1447.4,1144.4c18.6,0,33.7,15.1,33.7,33.7l0,0c0,18.6-15.1,33.7-33.7,33.7l0,0
			c-18.6,0-33.7-15.1-33.7-33.7l0,0C1413.7,1159.4,1428.8,1144.4,1447.4,1144.4z"/>
		<path d="M1447.4,1413.7L1447.4,1413.7c18.6,0,33.7,15.1,33.7,33.7l0,0c0,18.6-15.1,33.7-33.7,33.7l0,0
			c-18.6,0-33.7-15.1-33.7-33.7l0,0C1413.7,1428.8,1428.8,1413.7,1447.4,1413.7z"/>
		<path d="M1447.4,1615.7L1447.4,1615.7c18.6,0,33.7,15.1,33.7,33.7v134.7c0,18.6-15.1,33.7-33.7,33.7l0,0
			c-18.6,0-33.7-15.1-33.7-33.7v-134.7C1413.7,1630.8,1428.8,1615.7,1447.4,1615.7z"/>
		<path d="M1447.4,1885.1L1447.4,1885.1c18.6,0,33.7,15.1,33.7,33.7l0,0c0,18.6-15.1,33.7-33.7,33.7l0,0
			c-18.6,0-33.7-15.1-33.7-33.7l0,0C1413.7,1900.2,1428.8,1885.1,1447.4,1885.1z"/>
		<path d="M1447.4,2019.8L1447.4,2019.8c18.6,0,33.7,15.1,33.7,33.7l0,0c0,18.6-15.1,33.7-33.7,33.7l0,0
			c-18.6,0-33.7-15.1-33.7-33.7l0,0C1413.7,2034.9,1428.8,2019.8,1447.4,2019.8z"/>
		<path d="M1514.7,134.3L1514.7,134.3c18.6,0,33.7,15.1,33.7,33.7l0,0c0,18.6-15.1,33.7-33.7,33.7l0,0c-18.6,0-33.7-15.1-33.7-33.7
			l0,0C1481.1,149.3,1496.1,134.3,1514.7,134.3z"/>
		<path d="M1514.7,471L1514.7,471c18.6,0,33.7,15.1,33.7,33.7V774c0,18.6-15.1,33.7-33.7,33.7l0,0c-18.6,0-33.7-15.1-33.7-33.7
			V504.6C1481.1,486,1496.1,471,1514.7,471z"/>
		<path d="M1514.7,875L1514.7,875c18.6,0,33.7,15.1,33.7,33.7l0,0c0,18.6-15.1,33.7-33.7,33.7l0,0c-18.6,0-33.7-15.1-33.7-33.7l0,0
			C1481.1,890.1,1496.1,875,1514.7,875z"/>
		<path d="M1514.7,1009.7L1514.7,1009.7c18.6,0,33.7,15.1,33.7,33.7v202c0,18.6-15.1,33.7-33.7,33.7l0,0
			c-18.6,0-33.7-15.1-33.7-33.7v-202C1481.1,1024.8,1496.1,1009.7,1514.7,1009.7z"/>
		<path d="M1514.7,1413.7L1514.7,1413.7c18.6,0,33.7,15.1,33.7,33.7v404c0,18.6-15.1,33.7-33.7,33.7l0,0
			c-18.6,0-33.7-15.1-33.7-33.7v-404C1481.1,1428.8,1496.1,1413.7,1514.7,1413.7z"/>
		<path d="M1514.7,1952.5L1514.7,1952.5c18.6,0,33.7,15.1,33.7,33.7v67.3c0,18.6-15.1,33.7-33.7,33.7l0,0
			c-18.6,0-33.7-15.1-33.7-33.7v-67.3C1481.1,1967.5,1496.1,1952.5,1514.7,1952.5z"/>
		<path d="M1582.1,875L1582.1,875c18.6,0,33.7,15.1,33.7,33.7V976c0,18.6-15.1,33.7-33.7,33.7l0,0c-18.6,0-33.7-15.1-33.7-33.7
			v-67.3C1548.4,890.1,1563.5,875,1582.1,875z"/>
		<path d="M1582.1,1279L1582.1,1279c18.6,0,33.7,15.1,33.7,33.7l0,0c0,18.6-15.1,33.7-33.7,33.7l0,0c-18.6,0-33.7-15.1-33.7-33.7
			l0,0C1548.4,1294.1,1563.5,1279,1582.1,1279z"/>
		<path d="M1582.1,1413.7L1582.1,1413.7c18.6,0,33.7,15.1,33.7,33.7v67.3c0,18.6-15.1,33.7-33.7,33.7l0,0
			c-18.6,0-33.7-15.1-33.7-33.7v-67.3C1548.4,1428.8,1563.5,1413.7,1582.1,1413.7z"/>
		<path d="M1582.1,1750.4L1582.1,1750.4c18.6,0,33.7,15.1,33.7,33.7l0,0c0,18.6-15.1,33.7-33.7,33.7l0,0
			c-18.6,0-33.7-15.1-33.7-33.7l0,0C1548.4,1765.5,1563.5,1750.4,1582.1,1750.4z"/>
		<path d="M1582.1,1952.5L1582.1,1952.5c18.6,0,33.7,15.1,33.7,33.7v67.3c0,18.6-15.1,33.7-33.7,33.7l0,0
			c-18.6,0-33.7-15.1-33.7-33.7v-67.3C1548.4,1967.5,1563.5,1952.5,1582.1,1952.5z"/>
		<path d="M1649.4,673L1649.4,673c18.6,0,33.7,15.1,33.7,33.7V774c0,18.6-15.1,33.7-33.7,33.7l0,0c-18.6,0-33.7-15.1-33.7-33.7
			v-67.3C1615.7,688.1,1630.8,673,1649.4,673z"/>
		<path d="M1649.4,875L1649.4,875c18.6,0,33.7,15.1,33.7,33.7V976c0,18.6-15.1,33.7-33.7,33.7l0,0c-18.6,0-33.7-15.1-33.7-33.7
			v-67.3C1615.7,890.1,1630.8,875,1649.4,875z"/>
		<path d="M1649.4,1144.4L1649.4,1144.4c18.6,0,33.7,15.1,33.7,33.7l0,0c0,18.6-15.1,33.7-33.7,33.7l0,0
			c-18.6,0-33.7-15.1-33.7-33.7l0,0C1615.7,1159.4,1630.8,1144.4,1649.4,1144.4z"/>
		<path d="M1649.4,1413.7L1649.4,1413.7c18.6,0,33.7,15.1,33.7,33.7v67.3c0,18.6-15.1,33.7-33.7,33.7l0,0
			c-18.6,0-33.7-15.1-33.7-33.7v-67.3C1615.7,1428.8,1630.8,1413.7,1649.4,1413.7z"/>
		<path d="M1649.4,1615.7L1649.4,1615.7c18.6,0,33.7,15.1,33.7,33.7l0,0c0,18.6-15.1,33.7-33.7,33.7l0,0
			c-18.6,0-33.7-15.1-33.7-33.7l0,0C1615.7,1630.8,1630.8,1615.7,1649.4,1615.7z"/>
		<path d="M1649.4,1750.4L1649.4,1750.4c18.6,0,33.7,15.1,33.7,33.7l0,0c0,18.6-15.1,33.7-33.7,33.7l0,0
			c-18.6,0-33.7-15.1-33.7-33.7l0,0C1615.7,1765.5,1630.8,1750.4,1649.4,1750.4z"/>
		<path d="M1649.4,2019.8L1649.4,2019.8c18.6,0,33.7,15.1,33.7,33.7l0,0c0,18.6-15.1,33.7-33.7,33.7l0,0
			c-18.6,0-33.7-15.1-33.7-33.7l0,0C1615.7,2034.9,1630.8,2019.8,1649.4,2019.8z"/>
		<path d="M1716.8,673L1716.8,673c18.6,0,33.7,15.1,33.7,33.7l0,0c0,18.6-15.1,33.7-33.7,33.7l0,0c-18.6,0-33.7-15.1-33.7-33.7l0,0
			C1683.1,688.1,1698.2,673,1716.8,673z"/>
		<path d="M1716.8,807.7L1716.8,807.7c18.6,0,33.7,15.1,33.7,33.7v67.3c0,18.6-15.1,33.7-33.7,33.7l0,0c-18.6,0-33.7-15.1-33.7-33.7
			v-67.3C1683.1,822.7,1698.2,807.7,1716.8,807.7z"/>
		<path d="M1716.8,1009.7L1716.8,1009.7c18.6,0,33.7,15.1,33.7,33.7l0,0c0,18.6-15.1,33.7-33.7,33.7l0,0
			c-18.6,0-33.7-15.1-33.7-33.7l0,0C1683.1,1024.8,1698.2,1009.7,1716.8,1009.7z"/>
		<path d="M1716.8,1211.7L1716.8,1211.7c18.6,0,33.7,15.1,33.7,33.7v67.3c0,18.6-15.1,33.7-33.7,33.7l0,0
			c-18.6,0-33.7-15.1-33.7-33.7v-67.3C1683.1,1226.8,1698.2,1211.7,1716.8,1211.7z"/>
		<path d="M1716.8,1413.7L1716.8,1413.7c18.6,0,33.7,15.1,33.7,33.7v67.3c0,18.6-15.1,33.7-33.7,33.7l0,0
			c-18.6,0-33.7-15.1-33.7-33.7v-67.3C1683.1,1428.8,1698.2,1413.7,1716.8,1413.7z"/>
		<path d="M1716.8,1750.4L1716.8,1750.4c18.6,0,33.7,15.1,33.7,33.7v134.7c0,18.6-15.1,33.7-33.7,33.7l0,0
			c-18.6,0-33.7-15.1-33.7-33.7v-134.7C1683.1,1765.5,1698.2,1750.4,1716.8,1750.4z"/>
		<path d="M1784.1,673L1784.1,673c18.6,0,33.7,15.1,33.7,33.7V774c0,18.6-15.1,33.7-33.7,33.7l0,0c-18.6,0-33.7-15.1-33.7-33.7
			v-67.3C1750.4,688.1,1765.5,673,1784.1,673z"/>
		<path d="M1784.1,875L1784.1,875c18.6,0,33.7,15.1,33.7,33.7l0,0c0,18.6-15.1,33.7-33.7,33.7l0,0c-18.6,0-33.7-15.1-33.7-33.7l0,0
			C1750.4,890.1,1765.5,875,1784.1,875z"/>
		<path d="M1784.1,1144.4L1784.1,1144.4c18.6,0,33.7,15.1,33.7,33.7v67.3c0,18.6-15.1,33.7-33.7,33.7l0,0
			c-18.6,0-33.7-15.1-33.7-33.7V1178C1750.4,1159.4,1765.5,1144.4,1784.1,1144.4z"/>
		<path d="M1784.1,1413.7L1784.1,1413.7c18.6,0,33.7,15.1,33.7,33.7v336.7c0,18.6-15.1,33.7-33.7,33.7l0,0
			c-18.6,0-33.7-15.1-33.7-33.7v-336.7C1750.4,1428.8,1765.5,1413.7,1784.1,1413.7z"/>
		<path d="M1784.1,2019.8L1784.1,2019.8c18.6,0,33.7,15.1,33.7,33.7l0,0c0,18.6-15.1,33.7-33.7,33.7l0,0
			c-18.6,0-33.7-15.1-33.7-33.7l0,0C1750.4,2034.9,1765.5,2019.8,1784.1,2019.8z"/>
		<path d="M1851.4,673L1851.4,673c18.6,0,33.7,15.1,33.7,33.7v202c0,18.6-15.1,33.7-33.7,33.7l0,0c-18.6,0-33.7-15.1-33.7-33.7v-202
			C1817.8,688.1,1832.8,673,1851.4,673z"/>
		<path d="M1851.4,1009.7L1851.4,1009.7c18.6,0,33.7,15.1,33.7,33.7v67.3c0,18.6-15.1,33.7-33.7,33.7l0,0
			c-18.6,0-33.7-15.1-33.7-33.7v-67.3C1817.8,1024.8,1832.8,1009.7,1851.4,1009.7z"/>
		<path d="M1851.4,1279L1851.4,1279c18.6,0,33.7,15.1,33.7,33.7v67.3c0,18.6-15.1,33.7-33.7,33.7l0,0c-18.6,0-33.7-15.1-33.7-33.7
			v-67.3C1817.8,1294.1,1832.8,1279,1851.4,1279z"/>
		<path d="M1851.4,1481.1L1851.4,1481.1c18.6,0,33.7,15.1,33.7,33.7l0,0c0,18.6-15.1,33.7-33.7,33.7l0,0
			c-18.6,0-33.7-15.1-33.7-33.7l0,0C1817.8,1496.1,1832.8,1481.1,1851.4,1481.1z"/>
		<path d="M1851.4,1615.7L1851.4,1615.7c18.6,0,33.7,15.1,33.7,33.7l0,0c0,18.6-15.1,33.7-33.7,33.7l0,0
			c-18.6,0-33.7-15.1-33.7-33.7l0,0C1817.8,1630.8,1832.8,1615.7,1851.4,1615.7z"/>
		<path d="M1851.4,1952.5L1851.4,1952.5c18.6,0,33.7,15.1,33.7,33.7v67.3c0,18.6-15.1,33.7-33.7,33.7l0,0
			c-18.6,0-33.7-15.1-33.7-33.7v-67.3C1817.8,1967.5,1832.8,1952.5,1851.4,1952.5z"/>
		<path d="M1918.8,673L1918.8,673c18.6,0,33.7,15.1,33.7,33.7l0,0c0,18.6-15.1,33.7-33.7,33.7l0,0c-18.6,0-33.7-15.1-33.7-33.7l0,0
			C1885.1,688.1,1900.2,673,1918.8,673z"/>
		<path d="M1918.8,807.7L1918.8,807.7c18.6,0,33.7,15.1,33.7,33.7l0,0c0,18.6-15.1,33.7-33.7,33.7l0,0c-18.6,0-33.7-15.1-33.7-33.7
			l0,0C1885.1,822.7,1900.2,807.7,1918.8,807.7z"/>
		<path d="M1918.8,1077L1918.8,1077c18.6,0,33.7,15.1,33.7,33.7l0,0c0,18.6-15.1,33.7-33.7,33.7l0,0c-18.6,0-33.7-15.1-33.7-33.7
			l0,0C1885.1,1092.1,1900.2,1077,1918.8,1077z"/>
		<path d="M1918.8,1346.4L1918.8,1346.4c18.6,0,33.7,15.1,33.7,33.7l0,0c0,18.6-15.1,33.7-33.7,33.7l0,0
			c-18.6,0-33.7-15.1-33.7-33.7l0,0C1885.1,1361.5,1900.2,1346.4,1918.8,1346.4z"/>
		<path d="M1918.8,1481.1L1918.8,1481.1c18.6,0,33.7,15.1,33.7,33.7l0,0c0,18.6-15.1,33.7-33.7,33.7l0,0
			c-18.6,0-33.7-15.1-33.7-33.7l0,0C1885.1,1496.1,1900.2,1481.1,1918.8,1481.1z"/>
		<path d="M1918.8,1615.7L1918.8,1615.7c18.6,0,33.7,15.1,33.7,33.7v134.7c0,18.6-15.1,33.7-33.7,33.7l0,0
			c-18.6,0-33.7-15.1-33.7-33.7v-134.7C1885.1,1630.8,1900.2,1615.7,1918.8,1615.7z"/>
		<path d="M1918.8,1885.1L1918.8,1885.1c18.6,0,33.7,15.1,33.7,33.7v134.7c0,18.6-15.1,33.7-33.7,33.7l0,0
			c-18.6,0-33.7-15.1-33.7-33.7v-134.7C1885.1,1900.2,1900.2,1885.1,1918.8,1885.1z"/>
		<path d="M1986.1,740.3L1986.1,740.3c18.6,0,33.7,15.1,33.7,33.7l0,0c0,18.6-15.1,33.7-33.7,33.7l0,0c-18.6,0-33.7-15.1-33.7-33.7
			l0,0C1952.5,755.4,1967.5,740.3,1986.1,740.3z"/>
		<path d="M1986.1,1009.7L1986.1,1009.7c18.6,0,33.7,15.1,33.7,33.7V1178c0,18.6-15.1,33.7-33.7,33.7l0,0
			c-18.6,0-33.7-15.1-33.7-33.7v-134.7C1952.5,1024.8,1967.5,1009.7,1986.1,1009.7z"/>
		<path d="M1986.1,1279L1986.1,1279c18.6,0,33.7,15.1,33.7,33.7l0,0c0,18.6-15.1,33.7-33.7,33.7l0,0c-18.6,0-33.7-15.1-33.7-33.7
			l0,0C1952.5,1294.1,1967.5,1279,1986.1,1279z"/>
		<path d="M1986.1,1481.1L1986.1,1481.1c18.6,0,33.7,15.1,33.7,33.7v67.3c0,18.6-15.1,33.7-33.7,33.7l0,0
			c-18.6,0-33.7-15.1-33.7-33.7v-67.3C1952.5,1496.1,1967.5,1481.1,1986.1,1481.1z"/>
		<path d="M1986.1,1683.1L1986.1,1683.1c18.6,0,33.7,15.1,33.7,33.7v67.3c0,18.6-15.1,33.7-33.7,33.7l0,0
			c-18.6,0-33.7-15.1-33.7-33.7v-67.3C1952.5,1698.2,1967.5,1683.1,1986.1,1683.1z"/>
		<path d="M1986.1,1885.1L1986.1,1885.1c18.6,0,33.7,15.1,33.7,33.7l0,0c0,18.6-15.1,33.7-33.7,33.7l0,0
			c-18.6,0-33.7-15.1-33.7-33.7l0,0C1952.5,1900.2,1967.5,1885.1,1986.1,1885.1z"/>
		<path d="M2053.5,875L2053.5,875c18.6,0,33.7,15.1,33.7,33.7l0,0c0,18.6-15.1,33.7-33.7,33.7l0,0c-18.6,0-33.7-15.1-33.7-33.7l0,0
			C2019.8,890.1,2034.9,875,2053.5,875z"/>
		<path d="M2053.5,1077L2053.5,1077c18.6,0,33.7,15.1,33.7,33.7v67.3c0,18.6-15.1,33.7-33.7,33.7l0,0c-18.6,0-33.7-15.1-33.7-33.7
			v-67.3C2019.8,1092.1,2034.9,1077,2053.5,1077z"/>
		<path d="M2053.5,1279L2053.5,1279c18.6,0,33.7,15.1,33.7,33.7v67.3c0,18.6-15.1,33.7-33.7,33.7l0,0c-18.6,0-33.7-15.1-33.7-33.7
			v-67.3C2019.8,1294.1,2034.9,1279,2053.5,1279z"/>
		<path d="M2053.5,1683.1L2053.5,1683.1c18.6,0,33.7,15.1,33.7,33.7v67.3c0,18.6-15.1,33.7-33.7,33.7l0,0
			c-18.6,0-33.7-15.1-33.7-33.7v-67.3C2019.8,1698.2,2034.9,1683.1,2053.5,1683.1z"/>
		<path d="M2053.5,1952.5L2053.5,1952.5c18.6,0,33.7,15.1,33.7,33.7l0,0c0,18.6-15.1,33.7-33.7,33.7l0,0
			c-18.6,0-33.7-15.1-33.7-33.7l0,0C2019.8,1967.5,2034.9,1952.5,2053.5,1952.5z"/>
		<path d="M252.1,134.3h235.7c65.1,0,117.8,52.8,117.8,117.8v235.7c0,65.1-52.8,117.8-117.8,117.8H252.1
			c-65.1,0-117.8-52.8-117.8-117.8V252.1C134.3,187,187,134.3,252.1,134.3z"/>
		<path class="st0" d="M285.8,201.6h168.4c46.5,0,84.2,37.7,84.2,84.2v168.4c0,46.5-37.7,84.2-84.2,84.2H285.8
			c-46.5,0-84.2-37.7-84.2-84.2V285.8C201.6,239.3,239.3,201.6,285.8,201.6z"/>
		<path d="M319.4,268.9h101c27.9,0,50.5,22.6,50.5,50.5v101c0,27.9-22.6,50.5-50.5,50.5h-101c-27.9,0-50.5-22.6-50.5-50.5v-101
			C268.9,291.5,291.5,268.9,319.4,268.9z"/>
		<path d="M1733.6,134.3h235.7c65.1,0,117.8,52.8,117.8,117.8v235.7c0,65.1-52.8,117.8-117.8,117.8h-235.7
			c-65.1,0-117.8-52.8-117.8-117.8V252.1C1615.7,187,1668.5,134.3,1733.6,134.3z"/>
		<path class="st0" d="M1767.3,201.6h168.4c46.5,0,84.2,37.7,84.2,84.2v168.4c0,46.5-37.7,84.2-84.2,84.2h-168.4
			c-46.5,0-84.2-37.7-84.2-84.2V285.8C1683.1,239.3,1720.8,201.6,1767.3,201.6z"/>
		<path d="M1800.9,268.9h101c27.9,0,50.5,22.6,50.5,50.5v101c0,27.9-22.6,50.5-50.5,50.5h-101c-27.9,0-50.5-22.6-50.5-50.5v-101
			C1750.4,291.5,1773,268.9,1800.9,268.9z"/>
		<path d="M252.1,1615.7h235.7c65.1,0,117.8,52.8,117.8,117.8v235.7c0,65.1-52.8,117.8-117.8,117.8H252.1
			c-65.1,0-117.8-52.8-117.8-117.8v-235.7C134.3,1668.5,187,1615.7,252.1,1615.7z"/>
		<path class="st0" d="M285.8,1683.1h168.4c46.5,0,84.2,37.7,84.2,84.2v168.4c0,46.5-37.7,84.2-84.2,84.2H285.8
			c-46.5,0-84.2-37.7-84.2-84.2v-168.4C201.6,1720.8,239.3,1683.1,285.8,1683.1z"/>
		<path d="M319.4,1750.4h101c27.9,0,50.5,22.6,50.5,50.5v101c0,27.9-22.6,50.5-50.5,50.5h-101c-27.9,0-50.5-22.6-50.5-50.5v-101
			C268.9,1773,291.5,1750.4,319.4,1750.4z"/>
	</g>
</g>
</svg>
